%TF.GenerationSoftware,KiCad,Pcbnew,8.0.1*%
%TF.CreationDate,2024-08-03T23:28:29+02:00*%
%TF.ProjectId,prot_cir,70726f74-5f63-4697-922e-6b696361645f,rev?*%
%TF.SameCoordinates,Original*%
%TF.FileFunction,Legend,Top*%
%TF.FilePolarity,Positive*%
%FSLAX46Y46*%
G04 Gerber Fmt 4.6, Leading zero omitted, Abs format (unit mm)*
G04 Created by KiCad (PCBNEW 8.0.1) date 2024-08-03 23:28:29*
%MOMM*%
%LPD*%
G01*
G04 APERTURE LIST*
G04 Aperture macros list*
%AMRoundRect*
0 Rectangle with rounded corners*
0 $1 Rounding radius*
0 $2 $3 $4 $5 $6 $7 $8 $9 X,Y pos of 4 corners*
0 Add a 4 corners polygon primitive as box body*
4,1,4,$2,$3,$4,$5,$6,$7,$8,$9,$2,$3,0*
0 Add four circle primitives for the rounded corners*
1,1,$1+$1,$2,$3*
1,1,$1+$1,$4,$5*
1,1,$1+$1,$6,$7*
1,1,$1+$1,$8,$9*
0 Add four rect primitives between the rounded corners*
20,1,$1+$1,$2,$3,$4,$5,0*
20,1,$1+$1,$4,$5,$6,$7,0*
20,1,$1+$1,$6,$7,$8,$9,0*
20,1,$1+$1,$8,$9,$2,$3,0*%
G04 Aperture macros list end*
%ADD10C,0.150000*%
%ADD11C,0.100000*%
%ADD12C,0.120000*%
%ADD13RoundRect,0.237500X0.250000X0.237500X-0.250000X0.237500X-0.250000X-0.237500X0.250000X-0.237500X0*%
%ADD14R,1.800000X1.800000*%
%ADD15C,1.800000*%
%ADD16C,5.600000*%
%ADD17R,3.000000X3.000000*%
%ADD18C,3.000000*%
%ADD19RoundRect,0.237500X-0.237500X0.250000X-0.237500X-0.250000X0.237500X-0.250000X0.237500X0.250000X0*%
%ADD20C,2.500000*%
%ADD21RoundRect,0.250000X0.600000X-0.400000X0.600000X0.400000X-0.600000X0.400000X-0.600000X-0.400000X0*%
%ADD22R,1.600000X1.600000*%
%ADD23C,1.600000*%
%ADD24RoundRect,0.250000X-0.350000X0.850000X-0.350000X-0.850000X0.350000X-0.850000X0.350000X0.850000X0*%
%ADD25RoundRect,0.249997X-2.650003X2.950003X-2.650003X-2.950003X2.650003X-2.950003X2.650003X2.950003X0*%
G04 APERTURE END LIST*
D10*
X142443922Y-94619819D02*
X142777255Y-95619819D01*
X142777255Y-95619819D02*
X143110588Y-94619819D01*
X143443922Y-95238866D02*
X144205827Y-95238866D01*
X137443922Y-94619819D02*
X137777255Y-95619819D01*
X137777255Y-95619819D02*
X138110588Y-94619819D01*
X138443922Y-95238866D02*
X139205827Y-95238866D01*
X138824874Y-95619819D02*
X138824874Y-94857914D01*
X137086779Y-97619819D02*
X137086779Y-96619819D01*
X137086779Y-97096009D02*
X137658207Y-97096009D01*
X137658207Y-97619819D02*
X137658207Y-96619819D01*
X138134398Y-97096009D02*
X138467731Y-97096009D01*
X138610588Y-97619819D02*
X138134398Y-97619819D01*
X138134398Y-97619819D02*
X138134398Y-96619819D01*
X138134398Y-96619819D02*
X138610588Y-96619819D01*
X138943922Y-96619819D02*
X139182017Y-97619819D01*
X139182017Y-97619819D02*
X139372493Y-96905533D01*
X139372493Y-96905533D02*
X139562969Y-97619819D01*
X139562969Y-97619819D02*
X139801065Y-96619819D01*
X140182017Y-97096009D02*
X140515350Y-97096009D01*
X140658207Y-97619819D02*
X140182017Y-97619819D01*
X140182017Y-97619819D02*
X140182017Y-96619819D01*
X140182017Y-96619819D02*
X140658207Y-96619819D01*
X141562969Y-97619819D02*
X141086779Y-97619819D01*
X141086779Y-97619819D02*
X141086779Y-96619819D01*
X141896303Y-97619819D02*
X141896303Y-96619819D01*
X142372493Y-96619819D02*
X142372493Y-97429342D01*
X142372493Y-97429342D02*
X142420112Y-97524580D01*
X142420112Y-97524580D02*
X142467731Y-97572200D01*
X142467731Y-97572200D02*
X142562969Y-97619819D01*
X142562969Y-97619819D02*
X142753445Y-97619819D01*
X142753445Y-97619819D02*
X142848683Y-97572200D01*
X142848683Y-97572200D02*
X142896302Y-97524580D01*
X142896302Y-97524580D02*
X142943921Y-97429342D01*
X142943921Y-97429342D02*
X142943921Y-96619819D01*
X143372493Y-97572200D02*
X143515350Y-97619819D01*
X143515350Y-97619819D02*
X143753445Y-97619819D01*
X143753445Y-97619819D02*
X143848683Y-97572200D01*
X143848683Y-97572200D02*
X143896302Y-97524580D01*
X143896302Y-97524580D02*
X143943921Y-97429342D01*
X143943921Y-97429342D02*
X143943921Y-97334104D01*
X143943921Y-97334104D02*
X143896302Y-97238866D01*
X143896302Y-97238866D02*
X143848683Y-97191247D01*
X143848683Y-97191247D02*
X143753445Y-97143628D01*
X143753445Y-97143628D02*
X143562969Y-97096009D01*
X143562969Y-97096009D02*
X143467731Y-97048390D01*
X143467731Y-97048390D02*
X143420112Y-97000771D01*
X143420112Y-97000771D02*
X143372493Y-96905533D01*
X143372493Y-96905533D02*
X143372493Y-96810295D01*
X143372493Y-96810295D02*
X143420112Y-96715057D01*
X143420112Y-96715057D02*
X143467731Y-96667438D01*
X143467731Y-96667438D02*
X143562969Y-96619819D01*
X143562969Y-96619819D02*
X143801064Y-96619819D01*
X143801064Y-96619819D02*
X143943921Y-96667438D01*
X144277255Y-96619819D02*
X144943921Y-96619819D01*
X144943921Y-96619819D02*
X144277255Y-97619819D01*
X144277255Y-97619819D02*
X144943921Y-97619819D01*
X137670112Y-112846009D02*
X137812969Y-112893628D01*
X137812969Y-112893628D02*
X137860588Y-112941247D01*
X137860588Y-112941247D02*
X137908207Y-113036485D01*
X137908207Y-113036485D02*
X137908207Y-113179342D01*
X137908207Y-113179342D02*
X137860588Y-113274580D01*
X137860588Y-113274580D02*
X137812969Y-113322200D01*
X137812969Y-113322200D02*
X137717731Y-113369819D01*
X137717731Y-113369819D02*
X137336779Y-113369819D01*
X137336779Y-113369819D02*
X137336779Y-112369819D01*
X137336779Y-112369819D02*
X137670112Y-112369819D01*
X137670112Y-112369819D02*
X137765350Y-112417438D01*
X137765350Y-112417438D02*
X137812969Y-112465057D01*
X137812969Y-112465057D02*
X137860588Y-112560295D01*
X137860588Y-112560295D02*
X137860588Y-112655533D01*
X137860588Y-112655533D02*
X137812969Y-112750771D01*
X137812969Y-112750771D02*
X137765350Y-112798390D01*
X137765350Y-112798390D02*
X137670112Y-112846009D01*
X137670112Y-112846009D02*
X137336779Y-112846009D01*
X138670112Y-112846009D02*
X138812969Y-112893628D01*
X138812969Y-112893628D02*
X138860588Y-112941247D01*
X138860588Y-112941247D02*
X138908207Y-113036485D01*
X138908207Y-113036485D02*
X138908207Y-113179342D01*
X138908207Y-113179342D02*
X138860588Y-113274580D01*
X138860588Y-113274580D02*
X138812969Y-113322200D01*
X138812969Y-113322200D02*
X138717731Y-113369819D01*
X138717731Y-113369819D02*
X138336779Y-113369819D01*
X138336779Y-113369819D02*
X138336779Y-112369819D01*
X138336779Y-112369819D02*
X138670112Y-112369819D01*
X138670112Y-112369819D02*
X138765350Y-112417438D01*
X138765350Y-112417438D02*
X138812969Y-112465057D01*
X138812969Y-112465057D02*
X138860588Y-112560295D01*
X138860588Y-112560295D02*
X138860588Y-112655533D01*
X138860588Y-112655533D02*
X138812969Y-112750771D01*
X138812969Y-112750771D02*
X138765350Y-112798390D01*
X138765350Y-112798390D02*
X138670112Y-112846009D01*
X138670112Y-112846009D02*
X138336779Y-112846009D01*
X139098684Y-113465057D02*
X139860588Y-113465057D01*
X140432017Y-112846009D02*
X140574874Y-112893628D01*
X140574874Y-112893628D02*
X140622493Y-112941247D01*
X140622493Y-112941247D02*
X140670112Y-113036485D01*
X140670112Y-113036485D02*
X140670112Y-113179342D01*
X140670112Y-113179342D02*
X140622493Y-113274580D01*
X140622493Y-113274580D02*
X140574874Y-113322200D01*
X140574874Y-113322200D02*
X140479636Y-113369819D01*
X140479636Y-113369819D02*
X140098684Y-113369819D01*
X140098684Y-113369819D02*
X140098684Y-112369819D01*
X140098684Y-112369819D02*
X140432017Y-112369819D01*
X140432017Y-112369819D02*
X140527255Y-112417438D01*
X140527255Y-112417438D02*
X140574874Y-112465057D01*
X140574874Y-112465057D02*
X140622493Y-112560295D01*
X140622493Y-112560295D02*
X140622493Y-112655533D01*
X140622493Y-112655533D02*
X140574874Y-112750771D01*
X140574874Y-112750771D02*
X140527255Y-112798390D01*
X140527255Y-112798390D02*
X140432017Y-112846009D01*
X140432017Y-112846009D02*
X140098684Y-112846009D01*
X141098684Y-112369819D02*
X141098684Y-113179342D01*
X141098684Y-113179342D02*
X141146303Y-113274580D01*
X141146303Y-113274580D02*
X141193922Y-113322200D01*
X141193922Y-113322200D02*
X141289160Y-113369819D01*
X141289160Y-113369819D02*
X141479636Y-113369819D01*
X141479636Y-113369819D02*
X141574874Y-113322200D01*
X141574874Y-113322200D02*
X141622493Y-113274580D01*
X141622493Y-113274580D02*
X141670112Y-113179342D01*
X141670112Y-113179342D02*
X141670112Y-112369819D01*
X142717731Y-113274580D02*
X142670112Y-113322200D01*
X142670112Y-113322200D02*
X142527255Y-113369819D01*
X142527255Y-113369819D02*
X142432017Y-113369819D01*
X142432017Y-113369819D02*
X142289160Y-113322200D01*
X142289160Y-113322200D02*
X142193922Y-113226961D01*
X142193922Y-113226961D02*
X142146303Y-113131723D01*
X142146303Y-113131723D02*
X142098684Y-112941247D01*
X142098684Y-112941247D02*
X142098684Y-112798390D01*
X142098684Y-112798390D02*
X142146303Y-112607914D01*
X142146303Y-112607914D02*
X142193922Y-112512676D01*
X142193922Y-112512676D02*
X142289160Y-112417438D01*
X142289160Y-112417438D02*
X142432017Y-112369819D01*
X142432017Y-112369819D02*
X142527255Y-112369819D01*
X142527255Y-112369819D02*
X142670112Y-112417438D01*
X142670112Y-112417438D02*
X142717731Y-112465057D01*
X143146303Y-113369819D02*
X143146303Y-112369819D01*
X143717731Y-113369819D02*
X143289160Y-112798390D01*
X143717731Y-112369819D02*
X143146303Y-112941247D01*
X141943922Y-114119819D02*
X142277255Y-115119819D01*
X142277255Y-115119819D02*
X142610588Y-114119819D01*
X142943922Y-114738866D02*
X143705827Y-114738866D01*
X143324874Y-115119819D02*
X143324874Y-114357914D01*
X137193922Y-114119819D02*
X137527255Y-115119819D01*
X137527255Y-115119819D02*
X137860588Y-114119819D01*
X138193922Y-114738866D02*
X138955827Y-114738866D01*
D11*
X125690476Y-116238665D02*
X125357143Y-116238665D01*
X125357143Y-116762475D02*
X125357143Y-115762475D01*
X125357143Y-115762475D02*
X125833333Y-115762475D01*
X126214286Y-115762475D02*
X126214286Y-116571998D01*
X126214286Y-116571998D02*
X126261905Y-116667236D01*
X126261905Y-116667236D02*
X126309524Y-116714856D01*
X126309524Y-116714856D02*
X126404762Y-116762475D01*
X126404762Y-116762475D02*
X126595238Y-116762475D01*
X126595238Y-116762475D02*
X126690476Y-116714856D01*
X126690476Y-116714856D02*
X126738095Y-116667236D01*
X126738095Y-116667236D02*
X126785714Y-116571998D01*
X126785714Y-116571998D02*
X126785714Y-115762475D01*
X127214286Y-116714856D02*
X127357143Y-116762475D01*
X127357143Y-116762475D02*
X127595238Y-116762475D01*
X127595238Y-116762475D02*
X127690476Y-116714856D01*
X127690476Y-116714856D02*
X127738095Y-116667236D01*
X127738095Y-116667236D02*
X127785714Y-116571998D01*
X127785714Y-116571998D02*
X127785714Y-116476760D01*
X127785714Y-116476760D02*
X127738095Y-116381522D01*
X127738095Y-116381522D02*
X127690476Y-116333903D01*
X127690476Y-116333903D02*
X127595238Y-116286284D01*
X127595238Y-116286284D02*
X127404762Y-116238665D01*
X127404762Y-116238665D02*
X127309524Y-116191046D01*
X127309524Y-116191046D02*
X127261905Y-116143427D01*
X127261905Y-116143427D02*
X127214286Y-116048189D01*
X127214286Y-116048189D02*
X127214286Y-115952951D01*
X127214286Y-115952951D02*
X127261905Y-115857713D01*
X127261905Y-115857713D02*
X127309524Y-115810094D01*
X127309524Y-115810094D02*
X127404762Y-115762475D01*
X127404762Y-115762475D02*
X127642857Y-115762475D01*
X127642857Y-115762475D02*
X127785714Y-115810094D01*
X128214286Y-116238665D02*
X128547619Y-116238665D01*
X128690476Y-116762475D02*
X128214286Y-116762475D01*
X128214286Y-116762475D02*
X128214286Y-115762475D01*
X128214286Y-115762475D02*
X128690476Y-115762475D01*
X125690476Y-118372419D02*
X125690476Y-117372419D01*
X125690476Y-117848609D02*
X126261904Y-117848609D01*
X126261904Y-118372419D02*
X126261904Y-117372419D01*
X126738095Y-117848609D02*
X127071428Y-117848609D01*
X127214285Y-118372419D02*
X126738095Y-118372419D01*
X126738095Y-118372419D02*
X126738095Y-117372419D01*
X126738095Y-117372419D02*
X127214285Y-117372419D01*
X127547619Y-117372419D02*
X127785714Y-118372419D01*
X127785714Y-118372419D02*
X127976190Y-117658133D01*
X127976190Y-117658133D02*
X128166666Y-118372419D01*
X128166666Y-118372419D02*
X128404762Y-117372419D01*
X125690476Y-91738665D02*
X125357143Y-91738665D01*
X125357143Y-92262475D02*
X125357143Y-91262475D01*
X125357143Y-91262475D02*
X125833333Y-91262475D01*
X126214286Y-91262475D02*
X126214286Y-92071998D01*
X126214286Y-92071998D02*
X126261905Y-92167236D01*
X126261905Y-92167236D02*
X126309524Y-92214856D01*
X126309524Y-92214856D02*
X126404762Y-92262475D01*
X126404762Y-92262475D02*
X126595238Y-92262475D01*
X126595238Y-92262475D02*
X126690476Y-92214856D01*
X126690476Y-92214856D02*
X126738095Y-92167236D01*
X126738095Y-92167236D02*
X126785714Y-92071998D01*
X126785714Y-92071998D02*
X126785714Y-91262475D01*
X127214286Y-92214856D02*
X127357143Y-92262475D01*
X127357143Y-92262475D02*
X127595238Y-92262475D01*
X127595238Y-92262475D02*
X127690476Y-92214856D01*
X127690476Y-92214856D02*
X127738095Y-92167236D01*
X127738095Y-92167236D02*
X127785714Y-92071998D01*
X127785714Y-92071998D02*
X127785714Y-91976760D01*
X127785714Y-91976760D02*
X127738095Y-91881522D01*
X127738095Y-91881522D02*
X127690476Y-91833903D01*
X127690476Y-91833903D02*
X127595238Y-91786284D01*
X127595238Y-91786284D02*
X127404762Y-91738665D01*
X127404762Y-91738665D02*
X127309524Y-91691046D01*
X127309524Y-91691046D02*
X127261905Y-91643427D01*
X127261905Y-91643427D02*
X127214286Y-91548189D01*
X127214286Y-91548189D02*
X127214286Y-91452951D01*
X127214286Y-91452951D02*
X127261905Y-91357713D01*
X127261905Y-91357713D02*
X127309524Y-91310094D01*
X127309524Y-91310094D02*
X127404762Y-91262475D01*
X127404762Y-91262475D02*
X127642857Y-91262475D01*
X127642857Y-91262475D02*
X127785714Y-91310094D01*
X128214286Y-91738665D02*
X128547619Y-91738665D01*
X128690476Y-92262475D02*
X128214286Y-92262475D01*
X128214286Y-92262475D02*
X128214286Y-91262475D01*
X128214286Y-91262475D02*
X128690476Y-91262475D01*
X126571428Y-93348609D02*
X126714285Y-93396228D01*
X126714285Y-93396228D02*
X126761904Y-93443847D01*
X126761904Y-93443847D02*
X126809523Y-93539085D01*
X126809523Y-93539085D02*
X126809523Y-93681942D01*
X126809523Y-93681942D02*
X126761904Y-93777180D01*
X126761904Y-93777180D02*
X126714285Y-93824800D01*
X126714285Y-93824800D02*
X126619047Y-93872419D01*
X126619047Y-93872419D02*
X126238095Y-93872419D01*
X126238095Y-93872419D02*
X126238095Y-92872419D01*
X126238095Y-92872419D02*
X126571428Y-92872419D01*
X126571428Y-92872419D02*
X126666666Y-92920038D01*
X126666666Y-92920038D02*
X126714285Y-92967657D01*
X126714285Y-92967657D02*
X126761904Y-93062895D01*
X126761904Y-93062895D02*
X126761904Y-93158133D01*
X126761904Y-93158133D02*
X126714285Y-93253371D01*
X126714285Y-93253371D02*
X126666666Y-93300990D01*
X126666666Y-93300990D02*
X126571428Y-93348609D01*
X126571428Y-93348609D02*
X126238095Y-93348609D01*
X127571428Y-93348609D02*
X127714285Y-93396228D01*
X127714285Y-93396228D02*
X127761904Y-93443847D01*
X127761904Y-93443847D02*
X127809523Y-93539085D01*
X127809523Y-93539085D02*
X127809523Y-93681942D01*
X127809523Y-93681942D02*
X127761904Y-93777180D01*
X127761904Y-93777180D02*
X127714285Y-93824800D01*
X127714285Y-93824800D02*
X127619047Y-93872419D01*
X127619047Y-93872419D02*
X127238095Y-93872419D01*
X127238095Y-93872419D02*
X127238095Y-92872419D01*
X127238095Y-92872419D02*
X127571428Y-92872419D01*
X127571428Y-92872419D02*
X127666666Y-92920038D01*
X127666666Y-92920038D02*
X127714285Y-92967657D01*
X127714285Y-92967657D02*
X127761904Y-93062895D01*
X127761904Y-93062895D02*
X127761904Y-93158133D01*
X127761904Y-93158133D02*
X127714285Y-93253371D01*
X127714285Y-93253371D02*
X127666666Y-93300990D01*
X127666666Y-93300990D02*
X127571428Y-93348609D01*
X127571428Y-93348609D02*
X127238095Y-93348609D01*
X116375312Y-114372419D02*
X116041979Y-113896228D01*
X115803884Y-114372419D02*
X115803884Y-113372419D01*
X115803884Y-113372419D02*
X116184836Y-113372419D01*
X116184836Y-113372419D02*
X116280074Y-113420038D01*
X116280074Y-113420038D02*
X116327693Y-113467657D01*
X116327693Y-113467657D02*
X116375312Y-113562895D01*
X116375312Y-113562895D02*
X116375312Y-113705752D01*
X116375312Y-113705752D02*
X116327693Y-113800990D01*
X116327693Y-113800990D02*
X116280074Y-113848609D01*
X116280074Y-113848609D02*
X116184836Y-113896228D01*
X116184836Y-113896228D02*
X115803884Y-113896228D01*
X116803884Y-113848609D02*
X117137217Y-113848609D01*
X117280074Y-114372419D02*
X116803884Y-114372419D01*
X116803884Y-114372419D02*
X116803884Y-113372419D01*
X116803884Y-113372419D02*
X117280074Y-113372419D01*
X117565789Y-113372419D02*
X117899122Y-114372419D01*
X117899122Y-114372419D02*
X118232455Y-113372419D01*
X119327694Y-114372419D02*
X119327694Y-113372419D01*
X119327694Y-113372419D02*
X119708646Y-113372419D01*
X119708646Y-113372419D02*
X119803884Y-113420038D01*
X119803884Y-113420038D02*
X119851503Y-113467657D01*
X119851503Y-113467657D02*
X119899122Y-113562895D01*
X119899122Y-113562895D02*
X119899122Y-113705752D01*
X119899122Y-113705752D02*
X119851503Y-113800990D01*
X119851503Y-113800990D02*
X119803884Y-113848609D01*
X119803884Y-113848609D02*
X119708646Y-113896228D01*
X119708646Y-113896228D02*
X119327694Y-113896228D01*
X120518170Y-113372419D02*
X120708646Y-113372419D01*
X120708646Y-113372419D02*
X120803884Y-113420038D01*
X120803884Y-113420038D02*
X120899122Y-113515276D01*
X120899122Y-113515276D02*
X120946741Y-113705752D01*
X120946741Y-113705752D02*
X120946741Y-114039085D01*
X120946741Y-114039085D02*
X120899122Y-114229561D01*
X120899122Y-114229561D02*
X120803884Y-114324800D01*
X120803884Y-114324800D02*
X120708646Y-114372419D01*
X120708646Y-114372419D02*
X120518170Y-114372419D01*
X120518170Y-114372419D02*
X120422932Y-114324800D01*
X120422932Y-114324800D02*
X120327694Y-114229561D01*
X120327694Y-114229561D02*
X120280075Y-114039085D01*
X120280075Y-114039085D02*
X120280075Y-113705752D01*
X120280075Y-113705752D02*
X120327694Y-113515276D01*
X120327694Y-113515276D02*
X120422932Y-113420038D01*
X120422932Y-113420038D02*
X120518170Y-113372419D01*
X121851503Y-114372419D02*
X121375313Y-114372419D01*
X121375313Y-114372419D02*
X121375313Y-113372419D01*
X129000000Y-106000000D02*
X153500000Y-106000000D01*
X153500000Y-110000000D01*
X129000000Y-110000000D01*
X129000000Y-106000000D01*
X129000000Y-100000000D02*
X153500000Y-100000000D01*
X153500000Y-104000000D01*
X129000000Y-104000000D01*
X129000000Y-100000000D01*
D10*
X112346009Y-103829887D02*
X112393628Y-103687030D01*
X112393628Y-103687030D02*
X112441247Y-103639411D01*
X112441247Y-103639411D02*
X112536485Y-103591792D01*
X112536485Y-103591792D02*
X112679342Y-103591792D01*
X112679342Y-103591792D02*
X112774580Y-103639411D01*
X112774580Y-103639411D02*
X112822200Y-103687030D01*
X112822200Y-103687030D02*
X112869819Y-103782268D01*
X112869819Y-103782268D02*
X112869819Y-104163220D01*
X112869819Y-104163220D02*
X111869819Y-104163220D01*
X111869819Y-104163220D02*
X111869819Y-103829887D01*
X111869819Y-103829887D02*
X111917438Y-103734649D01*
X111917438Y-103734649D02*
X111965057Y-103687030D01*
X111965057Y-103687030D02*
X112060295Y-103639411D01*
X112060295Y-103639411D02*
X112155533Y-103639411D01*
X112155533Y-103639411D02*
X112250771Y-103687030D01*
X112250771Y-103687030D02*
X112298390Y-103734649D01*
X112298390Y-103734649D02*
X112346009Y-103829887D01*
X112346009Y-103829887D02*
X112346009Y-104163220D01*
X112584104Y-103210839D02*
X112584104Y-102734649D01*
X112869819Y-103306077D02*
X111869819Y-102972744D01*
X111869819Y-102972744D02*
X112869819Y-102639411D01*
X111869819Y-102448934D02*
X111869819Y-101877506D01*
X112869819Y-102163220D02*
X111869819Y-102163220D01*
X111869819Y-101687029D02*
X111869819Y-101115601D01*
X112869819Y-101401315D02*
X111869819Y-101401315D01*
X112488866Y-100782267D02*
X112488866Y-100020363D01*
X112869819Y-100401315D02*
X112107914Y-100401315D01*
X111917438Y-108139411D02*
X111869819Y-108234649D01*
X111869819Y-108234649D02*
X111869819Y-108377506D01*
X111869819Y-108377506D02*
X111917438Y-108520363D01*
X111917438Y-108520363D02*
X112012676Y-108615601D01*
X112012676Y-108615601D02*
X112107914Y-108663220D01*
X112107914Y-108663220D02*
X112298390Y-108710839D01*
X112298390Y-108710839D02*
X112441247Y-108710839D01*
X112441247Y-108710839D02*
X112631723Y-108663220D01*
X112631723Y-108663220D02*
X112726961Y-108615601D01*
X112726961Y-108615601D02*
X112822200Y-108520363D01*
X112822200Y-108520363D02*
X112869819Y-108377506D01*
X112869819Y-108377506D02*
X112869819Y-108282268D01*
X112869819Y-108282268D02*
X112822200Y-108139411D01*
X112822200Y-108139411D02*
X112774580Y-108091792D01*
X112774580Y-108091792D02*
X112441247Y-108091792D01*
X112441247Y-108091792D02*
X112441247Y-108282268D01*
X112869819Y-107663220D02*
X111869819Y-107663220D01*
X111869819Y-107663220D02*
X112869819Y-107091792D01*
X112869819Y-107091792D02*
X111869819Y-107091792D01*
X112869819Y-106615601D02*
X111869819Y-106615601D01*
X111869819Y-106615601D02*
X111869819Y-106377506D01*
X111869819Y-106377506D02*
X111917438Y-106234649D01*
X111917438Y-106234649D02*
X112012676Y-106139411D01*
X112012676Y-106139411D02*
X112107914Y-106091792D01*
X112107914Y-106091792D02*
X112298390Y-106044173D01*
X112298390Y-106044173D02*
X112441247Y-106044173D01*
X112441247Y-106044173D02*
X112631723Y-106091792D01*
X112631723Y-106091792D02*
X112726961Y-106139411D01*
X112726961Y-106139411D02*
X112822200Y-106234649D01*
X112822200Y-106234649D02*
X112869819Y-106377506D01*
X112869819Y-106377506D02*
X112869819Y-106615601D01*
X132920833Y-112454819D02*
X132587500Y-111978628D01*
X132349405Y-112454819D02*
X132349405Y-111454819D01*
X132349405Y-111454819D02*
X132730357Y-111454819D01*
X132730357Y-111454819D02*
X132825595Y-111502438D01*
X132825595Y-111502438D02*
X132873214Y-111550057D01*
X132873214Y-111550057D02*
X132920833Y-111645295D01*
X132920833Y-111645295D02*
X132920833Y-111788152D01*
X132920833Y-111788152D02*
X132873214Y-111883390D01*
X132873214Y-111883390D02*
X132825595Y-111931009D01*
X132825595Y-111931009D02*
X132730357Y-111978628D01*
X132730357Y-111978628D02*
X132349405Y-111978628D01*
X133777976Y-111788152D02*
X133777976Y-112454819D01*
X133539881Y-111407200D02*
X133301786Y-112121485D01*
X133301786Y-112121485D02*
X133920833Y-112121485D01*
X128833333Y-112454819D02*
X128500000Y-111978628D01*
X128261905Y-112454819D02*
X128261905Y-111454819D01*
X128261905Y-111454819D02*
X128642857Y-111454819D01*
X128642857Y-111454819D02*
X128738095Y-111502438D01*
X128738095Y-111502438D02*
X128785714Y-111550057D01*
X128785714Y-111550057D02*
X128833333Y-111645295D01*
X128833333Y-111645295D02*
X128833333Y-111788152D01*
X128833333Y-111788152D02*
X128785714Y-111883390D01*
X128785714Y-111883390D02*
X128738095Y-111931009D01*
X128738095Y-111931009D02*
X128642857Y-111978628D01*
X128642857Y-111978628D02*
X128261905Y-111978628D01*
X129214286Y-111550057D02*
X129261905Y-111502438D01*
X129261905Y-111502438D02*
X129357143Y-111454819D01*
X129357143Y-111454819D02*
X129595238Y-111454819D01*
X129595238Y-111454819D02*
X129690476Y-111502438D01*
X129690476Y-111502438D02*
X129738095Y-111550057D01*
X129738095Y-111550057D02*
X129785714Y-111645295D01*
X129785714Y-111645295D02*
X129785714Y-111740533D01*
X129785714Y-111740533D02*
X129738095Y-111883390D01*
X129738095Y-111883390D02*
X129166667Y-112454819D01*
X129166667Y-112454819D02*
X129785714Y-112454819D01*
X133420833Y-98454819D02*
X133087500Y-97978628D01*
X132849405Y-98454819D02*
X132849405Y-97454819D01*
X132849405Y-97454819D02*
X133230357Y-97454819D01*
X133230357Y-97454819D02*
X133325595Y-97502438D01*
X133325595Y-97502438D02*
X133373214Y-97550057D01*
X133373214Y-97550057D02*
X133420833Y-97645295D01*
X133420833Y-97645295D02*
X133420833Y-97788152D01*
X133420833Y-97788152D02*
X133373214Y-97883390D01*
X133373214Y-97883390D02*
X133325595Y-97931009D01*
X133325595Y-97931009D02*
X133230357Y-97978628D01*
X133230357Y-97978628D02*
X132849405Y-97978628D01*
X134325595Y-97454819D02*
X133849405Y-97454819D01*
X133849405Y-97454819D02*
X133801786Y-97931009D01*
X133801786Y-97931009D02*
X133849405Y-97883390D01*
X133849405Y-97883390D02*
X133944643Y-97835771D01*
X133944643Y-97835771D02*
X134182738Y-97835771D01*
X134182738Y-97835771D02*
X134277976Y-97883390D01*
X134277976Y-97883390D02*
X134325595Y-97931009D01*
X134325595Y-97931009D02*
X134373214Y-98026247D01*
X134373214Y-98026247D02*
X134373214Y-98264342D01*
X134373214Y-98264342D02*
X134325595Y-98359580D01*
X134325595Y-98359580D02*
X134277976Y-98407200D01*
X134277976Y-98407200D02*
X134182738Y-98454819D01*
X134182738Y-98454819D02*
X133944643Y-98454819D01*
X133944643Y-98454819D02*
X133849405Y-98407200D01*
X133849405Y-98407200D02*
X133801786Y-98359580D01*
X128833333Y-98454819D02*
X128500000Y-97978628D01*
X128261905Y-98454819D02*
X128261905Y-97454819D01*
X128261905Y-97454819D02*
X128642857Y-97454819D01*
X128642857Y-97454819D02*
X128738095Y-97502438D01*
X128738095Y-97502438D02*
X128785714Y-97550057D01*
X128785714Y-97550057D02*
X128833333Y-97645295D01*
X128833333Y-97645295D02*
X128833333Y-97788152D01*
X128833333Y-97788152D02*
X128785714Y-97883390D01*
X128785714Y-97883390D02*
X128738095Y-97931009D01*
X128738095Y-97931009D02*
X128642857Y-97978628D01*
X128642857Y-97978628D02*
X128261905Y-97978628D01*
X129166667Y-97454819D02*
X129785714Y-97454819D01*
X129785714Y-97454819D02*
X129452381Y-97835771D01*
X129452381Y-97835771D02*
X129595238Y-97835771D01*
X129595238Y-97835771D02*
X129690476Y-97883390D01*
X129690476Y-97883390D02*
X129738095Y-97931009D01*
X129738095Y-97931009D02*
X129785714Y-98026247D01*
X129785714Y-98026247D02*
X129785714Y-98264342D01*
X129785714Y-98264342D02*
X129738095Y-98359580D01*
X129738095Y-98359580D02*
X129690476Y-98407200D01*
X129690476Y-98407200D02*
X129595238Y-98454819D01*
X129595238Y-98454819D02*
X129309524Y-98454819D01*
X129309524Y-98454819D02*
X129214286Y-98407200D01*
X129214286Y-98407200D02*
X129166667Y-98359580D01*
X109954819Y-108833333D02*
X110669104Y-108833333D01*
X110669104Y-108833333D02*
X110811961Y-108880952D01*
X110811961Y-108880952D02*
X110907200Y-108976190D01*
X110907200Y-108976190D02*
X110954819Y-109119047D01*
X110954819Y-109119047D02*
X110954819Y-109214285D01*
X110954819Y-107833333D02*
X110954819Y-108404761D01*
X110954819Y-108119047D02*
X109954819Y-108119047D01*
X109954819Y-108119047D02*
X110097676Y-108214285D01*
X110097676Y-108214285D02*
X110192914Y-108309523D01*
X110192914Y-108309523D02*
X110240533Y-108404761D01*
X123384819Y-99579166D02*
X122908628Y-99912499D01*
X123384819Y-100150594D02*
X122384819Y-100150594D01*
X122384819Y-100150594D02*
X122384819Y-99769642D01*
X122384819Y-99769642D02*
X122432438Y-99674404D01*
X122432438Y-99674404D02*
X122480057Y-99626785D01*
X122480057Y-99626785D02*
X122575295Y-99579166D01*
X122575295Y-99579166D02*
X122718152Y-99579166D01*
X122718152Y-99579166D02*
X122813390Y-99626785D01*
X122813390Y-99626785D02*
X122861009Y-99674404D01*
X122861009Y-99674404D02*
X122908628Y-99769642D01*
X122908628Y-99769642D02*
X122908628Y-100150594D01*
X122384819Y-98722023D02*
X122384819Y-98912499D01*
X122384819Y-98912499D02*
X122432438Y-99007737D01*
X122432438Y-99007737D02*
X122480057Y-99055356D01*
X122480057Y-99055356D02*
X122622914Y-99150594D01*
X122622914Y-99150594D02*
X122813390Y-99198213D01*
X122813390Y-99198213D02*
X123194342Y-99198213D01*
X123194342Y-99198213D02*
X123289580Y-99150594D01*
X123289580Y-99150594D02*
X123337200Y-99102975D01*
X123337200Y-99102975D02*
X123384819Y-99007737D01*
X123384819Y-99007737D02*
X123384819Y-98817261D01*
X123384819Y-98817261D02*
X123337200Y-98722023D01*
X123337200Y-98722023D02*
X123289580Y-98674404D01*
X123289580Y-98674404D02*
X123194342Y-98626785D01*
X123194342Y-98626785D02*
X122956247Y-98626785D01*
X122956247Y-98626785D02*
X122861009Y-98674404D01*
X122861009Y-98674404D02*
X122813390Y-98722023D01*
X122813390Y-98722023D02*
X122765771Y-98817261D01*
X122765771Y-98817261D02*
X122765771Y-99007737D01*
X122765771Y-99007737D02*
X122813390Y-99102975D01*
X122813390Y-99102975D02*
X122861009Y-99150594D01*
X122861009Y-99150594D02*
X122956247Y-99198213D01*
X124384819Y-116666666D02*
X123908628Y-116999999D01*
X124384819Y-117238094D02*
X123384819Y-117238094D01*
X123384819Y-117238094D02*
X123384819Y-116857142D01*
X123384819Y-116857142D02*
X123432438Y-116761904D01*
X123432438Y-116761904D02*
X123480057Y-116714285D01*
X123480057Y-116714285D02*
X123575295Y-116666666D01*
X123575295Y-116666666D02*
X123718152Y-116666666D01*
X123718152Y-116666666D02*
X123813390Y-116714285D01*
X123813390Y-116714285D02*
X123861009Y-116761904D01*
X123861009Y-116761904D02*
X123908628Y-116857142D01*
X123908628Y-116857142D02*
X123908628Y-117238094D01*
X124384819Y-115714285D02*
X124384819Y-116285713D01*
X124384819Y-115999999D02*
X123384819Y-115999999D01*
X123384819Y-115999999D02*
X123527676Y-116095237D01*
X123527676Y-116095237D02*
X123622914Y-116190475D01*
X123622914Y-116190475D02*
X123670533Y-116285713D01*
D11*
X141166666Y-101933609D02*
X140833333Y-101933609D01*
X140833333Y-102457419D02*
X140833333Y-101457419D01*
X140833333Y-101457419D02*
X141309523Y-101457419D01*
X141642857Y-101552657D02*
X141690476Y-101505038D01*
X141690476Y-101505038D02*
X141785714Y-101457419D01*
X141785714Y-101457419D02*
X142023809Y-101457419D01*
X142023809Y-101457419D02*
X142119047Y-101505038D01*
X142119047Y-101505038D02*
X142166666Y-101552657D01*
X142166666Y-101552657D02*
X142214285Y-101647895D01*
X142214285Y-101647895D02*
X142214285Y-101743133D01*
X142214285Y-101743133D02*
X142166666Y-101885990D01*
X142166666Y-101885990D02*
X141595238Y-102457419D01*
X141595238Y-102457419D02*
X142214285Y-102457419D01*
X141166666Y-107933609D02*
X140833333Y-107933609D01*
X140833333Y-108457419D02*
X140833333Y-107457419D01*
X140833333Y-107457419D02*
X141309523Y-107457419D01*
X142214285Y-108457419D02*
X141642857Y-108457419D01*
X141928571Y-108457419D02*
X141928571Y-107457419D01*
X141928571Y-107457419D02*
X141833333Y-107600276D01*
X141833333Y-107600276D02*
X141738095Y-107695514D01*
X141738095Y-107695514D02*
X141642857Y-107743133D01*
D10*
X127454819Y-106738094D02*
X126454819Y-106738094D01*
X126454819Y-106738094D02*
X126454819Y-106499999D01*
X126454819Y-106499999D02*
X126502438Y-106357142D01*
X126502438Y-106357142D02*
X126597676Y-106261904D01*
X126597676Y-106261904D02*
X126692914Y-106214285D01*
X126692914Y-106214285D02*
X126883390Y-106166666D01*
X126883390Y-106166666D02*
X127026247Y-106166666D01*
X127026247Y-106166666D02*
X127216723Y-106214285D01*
X127216723Y-106214285D02*
X127311961Y-106261904D01*
X127311961Y-106261904D02*
X127407200Y-106357142D01*
X127407200Y-106357142D02*
X127454819Y-106499999D01*
X127454819Y-106499999D02*
X127454819Y-106738094D01*
X127454819Y-105214285D02*
X127454819Y-105785713D01*
X127454819Y-105499999D02*
X126454819Y-105499999D01*
X126454819Y-105499999D02*
X126597676Y-105595237D01*
X126597676Y-105595237D02*
X126692914Y-105690475D01*
X126692914Y-105690475D02*
X126740533Y-105785713D01*
X114959580Y-94416666D02*
X115007200Y-94464285D01*
X115007200Y-94464285D02*
X115054819Y-94607142D01*
X115054819Y-94607142D02*
X115054819Y-94702380D01*
X115054819Y-94702380D02*
X115007200Y-94845237D01*
X115007200Y-94845237D02*
X114911961Y-94940475D01*
X114911961Y-94940475D02*
X114816723Y-94988094D01*
X114816723Y-94988094D02*
X114626247Y-95035713D01*
X114626247Y-95035713D02*
X114483390Y-95035713D01*
X114483390Y-95035713D02*
X114292914Y-94988094D01*
X114292914Y-94988094D02*
X114197676Y-94940475D01*
X114197676Y-94940475D02*
X114102438Y-94845237D01*
X114102438Y-94845237D02*
X114054819Y-94702380D01*
X114054819Y-94702380D02*
X114054819Y-94607142D01*
X114054819Y-94607142D02*
X114102438Y-94464285D01*
X114102438Y-94464285D02*
X114150057Y-94416666D01*
X115054819Y-93464285D02*
X115054819Y-94035713D01*
X115054819Y-93749999D02*
X114054819Y-93749999D01*
X114054819Y-93749999D02*
X114197676Y-93845237D01*
X114197676Y-93845237D02*
X114292914Y-93940475D01*
X114292914Y-93940475D02*
X114340533Y-94035713D01*
X115050057Y-109595238D02*
X115002438Y-109690476D01*
X115002438Y-109690476D02*
X114907200Y-109785714D01*
X114907200Y-109785714D02*
X114764342Y-109928571D01*
X114764342Y-109928571D02*
X114716723Y-110023809D01*
X114716723Y-110023809D02*
X114716723Y-110119047D01*
X114954819Y-110071428D02*
X114907200Y-110166666D01*
X114907200Y-110166666D02*
X114811961Y-110261904D01*
X114811961Y-110261904D02*
X114621485Y-110309523D01*
X114621485Y-110309523D02*
X114288152Y-110309523D01*
X114288152Y-110309523D02*
X114097676Y-110261904D01*
X114097676Y-110261904D02*
X114002438Y-110166666D01*
X114002438Y-110166666D02*
X113954819Y-110071428D01*
X113954819Y-110071428D02*
X113954819Y-109880952D01*
X113954819Y-109880952D02*
X114002438Y-109785714D01*
X114002438Y-109785714D02*
X114097676Y-109690476D01*
X114097676Y-109690476D02*
X114288152Y-109642857D01*
X114288152Y-109642857D02*
X114621485Y-109642857D01*
X114621485Y-109642857D02*
X114811961Y-109690476D01*
X114811961Y-109690476D02*
X114907200Y-109785714D01*
X114907200Y-109785714D02*
X114954819Y-109880952D01*
X114954819Y-109880952D02*
X114954819Y-110071428D01*
X114954819Y-108690476D02*
X114954819Y-109261904D01*
X114954819Y-108976190D02*
X113954819Y-108976190D01*
X113954819Y-108976190D02*
X114097676Y-109071428D01*
X114097676Y-109071428D02*
X114192914Y-109166666D01*
X114192914Y-109166666D02*
X114240533Y-109261904D01*
D12*
%TO.C,R4*%
X133254724Y-114022500D02*
X132745276Y-114022500D01*
X133254724Y-112977500D02*
X132745276Y-112977500D01*
%TO.C,R2*%
X129342224Y-114022500D02*
X128832776Y-114022500D01*
X129342224Y-112977500D02*
X128832776Y-112977500D01*
%TO.C,D2*%
X129935000Y-118080000D02*
X129935000Y-118236000D01*
X129935000Y-115764000D02*
X129935000Y-115920000D01*
X133167334Y-118078608D02*
G75*
G02*
X129935001Y-118235515I-1672334J1078608D01*
G01*
X132536129Y-118079836D02*
G75*
G02*
X130454040Y-118079999I-1041129J1079836D01*
G01*
X130454040Y-115920001D02*
G75*
G02*
X132536129Y-115920164I1040960J-1079999D01*
G01*
X129935001Y-115764485D02*
G75*
G02*
X133167334Y-115921392I1559999J-1235515D01*
G01*
%TO.C,R5*%
X133429724Y-97022500D02*
X132920276Y-97022500D01*
X133429724Y-95977500D02*
X132920276Y-95977500D01*
%TO.C,D4*%
X130110000Y-94080000D02*
X130110000Y-94236000D01*
X130110000Y-91764000D02*
X130110000Y-91920000D01*
X133342334Y-94078608D02*
G75*
G02*
X130110001Y-94235515I-1672334J1078608D01*
G01*
X132711129Y-94079836D02*
G75*
G02*
X130629040Y-94079999I-1041129J1079836D01*
G01*
X130629040Y-91920001D02*
G75*
G02*
X132711129Y-91920164I1040960J-1079999D01*
G01*
X130110001Y-91764485D02*
G75*
G02*
X133342334Y-91921392I1559999J-1235515D01*
G01*
%TO.C,R3*%
X129342224Y-97022500D02*
X128832776Y-97022500D01*
X129342224Y-95977500D02*
X128832776Y-95977500D01*
%TO.C,J4*%
X145580000Y-96310000D02*
X145580000Y-88690000D01*
X145580000Y-88690000D02*
X135420000Y-88690000D01*
X135420000Y-96310000D02*
X145580000Y-96310000D01*
X135420000Y-89960000D02*
X145580000Y-89960000D01*
X135420000Y-88690000D02*
X135420000Y-96310000D01*
%TO.C,J2*%
X135420000Y-113690000D02*
X135420000Y-121310000D01*
X135420000Y-121310000D02*
X145580000Y-121310000D01*
X145580000Y-113690000D02*
X135420000Y-113690000D01*
X145580000Y-120040000D02*
X135420000Y-120040000D01*
X145580000Y-121310000D02*
X145580000Y-113690000D01*
%TO.C,J1*%
X111310000Y-100380000D02*
X103690000Y-100380000D01*
X103690000Y-100380000D02*
X103690000Y-110540000D01*
X111310000Y-110540000D02*
X111310000Y-100380000D01*
X104960000Y-110540000D02*
X104960000Y-100380000D01*
X103690000Y-110540000D02*
X111310000Y-110540000D01*
%TO.C,R6*%
X122022500Y-99157776D02*
X122022500Y-99667224D01*
X120977500Y-99157776D02*
X120977500Y-99667224D01*
%TO.C,R1*%
X123022500Y-116245276D02*
X123022500Y-116754724D01*
X121977500Y-116245276D02*
X121977500Y-116754724D01*
%TO.C,D3*%
X117210000Y-115764000D02*
X117210000Y-115920000D01*
X117210000Y-118080000D02*
X117210000Y-118236000D01*
X117210001Y-115764485D02*
G75*
G02*
X120442334Y-115921392I1559999J-1235515D01*
G01*
X117729040Y-115920001D02*
G75*
G02*
X119811129Y-115920164I1040960J-1079999D01*
G01*
X119811129Y-118079836D02*
G75*
G02*
X117729040Y-118079999I-1041129J1079836D01*
G01*
X120442334Y-118078608D02*
G75*
G02*
X117210001Y-118235515I-1672334J1078608D01*
G01*
%TO.C,D1*%
X123890000Y-108660000D02*
X126110000Y-108660000D01*
X126110000Y-108660000D02*
X126110000Y-104250000D01*
X123890000Y-104250000D02*
X123890000Y-108660000D01*
%TO.C,C1*%
X117161000Y-97750241D02*
X117161000Y-97120241D01*
X116846000Y-97435241D02*
X117476000Y-97435241D01*
X115770000Y-94250000D02*
X122230000Y-94250000D01*
X115770000Y-94210000D02*
X122230000Y-94210000D01*
X115770000Y-94170000D02*
X122230000Y-94170000D01*
X115772000Y-94130000D02*
X122228000Y-94130000D01*
X115773000Y-94090000D02*
X122227000Y-94090000D01*
X115776000Y-94050000D02*
X122224000Y-94050000D01*
X115778000Y-94010000D02*
X117960000Y-94010000D01*
X120040000Y-94010000D02*
X122222000Y-94010000D01*
X115782000Y-93970000D02*
X117960000Y-93970000D01*
X120040000Y-93970000D02*
X122218000Y-93970000D01*
X115785000Y-93930000D02*
X117960000Y-93930000D01*
X120040000Y-93930000D02*
X122215000Y-93930000D01*
X115789000Y-93890000D02*
X117960000Y-93890000D01*
X120040000Y-93890000D02*
X122211000Y-93890000D01*
X115794000Y-93850000D02*
X117960000Y-93850000D01*
X120040000Y-93850000D02*
X122206000Y-93850000D01*
X115799000Y-93810000D02*
X117960000Y-93810000D01*
X120040000Y-93810000D02*
X122201000Y-93810000D01*
X115805000Y-93770000D02*
X117960000Y-93770000D01*
X120040000Y-93770000D02*
X122195000Y-93770000D01*
X115811000Y-93730000D02*
X117960000Y-93730000D01*
X120040000Y-93730000D02*
X122189000Y-93730000D01*
X115818000Y-93690000D02*
X117960000Y-93690000D01*
X120040000Y-93690000D02*
X122182000Y-93690000D01*
X115825000Y-93650000D02*
X117960000Y-93650000D01*
X120040000Y-93650000D02*
X122175000Y-93650000D01*
X115833000Y-93610000D02*
X117960000Y-93610000D01*
X120040000Y-93610000D02*
X122167000Y-93610000D01*
X115841000Y-93570000D02*
X117960000Y-93570000D01*
X120040000Y-93570000D02*
X122159000Y-93570000D01*
X115850000Y-93529000D02*
X117960000Y-93529000D01*
X120040000Y-93529000D02*
X122150000Y-93529000D01*
X115859000Y-93489000D02*
X117960000Y-93489000D01*
X120040000Y-93489000D02*
X122141000Y-93489000D01*
X115869000Y-93449000D02*
X117960000Y-93449000D01*
X120040000Y-93449000D02*
X122131000Y-93449000D01*
X115879000Y-93409000D02*
X117960000Y-93409000D01*
X120040000Y-93409000D02*
X122121000Y-93409000D01*
X115890000Y-93369000D02*
X117960000Y-93369000D01*
X120040000Y-93369000D02*
X122110000Y-93369000D01*
X115902000Y-93329000D02*
X117960000Y-93329000D01*
X120040000Y-93329000D02*
X122098000Y-93329000D01*
X115914000Y-93289000D02*
X117960000Y-93289000D01*
X120040000Y-93289000D02*
X122086000Y-93289000D01*
X115926000Y-93249000D02*
X117960000Y-93249000D01*
X120040000Y-93249000D02*
X122074000Y-93249000D01*
X115939000Y-93209000D02*
X117960000Y-93209000D01*
X120040000Y-93209000D02*
X122061000Y-93209000D01*
X115953000Y-93169000D02*
X117960000Y-93169000D01*
X120040000Y-93169000D02*
X122047000Y-93169000D01*
X115967000Y-93129000D02*
X117960000Y-93129000D01*
X120040000Y-93129000D02*
X122033000Y-93129000D01*
X115982000Y-93089000D02*
X117960000Y-93089000D01*
X120040000Y-93089000D02*
X122018000Y-93089000D01*
X115998000Y-93049000D02*
X117960000Y-93049000D01*
X120040000Y-93049000D02*
X122002000Y-93049000D01*
X116014000Y-93009000D02*
X117960000Y-93009000D01*
X120040000Y-93009000D02*
X121986000Y-93009000D01*
X116030000Y-92969000D02*
X117960000Y-92969000D01*
X120040000Y-92969000D02*
X121970000Y-92969000D01*
X116048000Y-92929000D02*
X117960000Y-92929000D01*
X120040000Y-92929000D02*
X121952000Y-92929000D01*
X116066000Y-92889000D02*
X117960000Y-92889000D01*
X120040000Y-92889000D02*
X121934000Y-92889000D01*
X116084000Y-92849000D02*
X117960000Y-92849000D01*
X120040000Y-92849000D02*
X121916000Y-92849000D01*
X116104000Y-92809000D02*
X117960000Y-92809000D01*
X120040000Y-92809000D02*
X121896000Y-92809000D01*
X116124000Y-92769000D02*
X117960000Y-92769000D01*
X120040000Y-92769000D02*
X121876000Y-92769000D01*
X116144000Y-92729000D02*
X117960000Y-92729000D01*
X120040000Y-92729000D02*
X121856000Y-92729000D01*
X116166000Y-92689000D02*
X117960000Y-92689000D01*
X120040000Y-92689000D02*
X121834000Y-92689000D01*
X116188000Y-92649000D02*
X117960000Y-92649000D01*
X120040000Y-92649000D02*
X121812000Y-92649000D01*
X116210000Y-92609000D02*
X117960000Y-92609000D01*
X120040000Y-92609000D02*
X121790000Y-92609000D01*
X116234000Y-92569000D02*
X117960000Y-92569000D01*
X120040000Y-92569000D02*
X121766000Y-92569000D01*
X116258000Y-92529000D02*
X117960000Y-92529000D01*
X120040000Y-92529000D02*
X121742000Y-92529000D01*
X116284000Y-92489000D02*
X117960000Y-92489000D01*
X120040000Y-92489000D02*
X121716000Y-92489000D01*
X116310000Y-92449000D02*
X117960000Y-92449000D01*
X120040000Y-92449000D02*
X121690000Y-92449000D01*
X116336000Y-92409000D02*
X117960000Y-92409000D01*
X120040000Y-92409000D02*
X121664000Y-92409000D01*
X116364000Y-92369000D02*
X117960000Y-92369000D01*
X120040000Y-92369000D02*
X121636000Y-92369000D01*
X116393000Y-92329000D02*
X117960000Y-92329000D01*
X120040000Y-92329000D02*
X121607000Y-92329000D01*
X116422000Y-92289000D02*
X117960000Y-92289000D01*
X120040000Y-92289000D02*
X121578000Y-92289000D01*
X116452000Y-92249000D02*
X117960000Y-92249000D01*
X120040000Y-92249000D02*
X121548000Y-92249000D01*
X116484000Y-92209000D02*
X117960000Y-92209000D01*
X120040000Y-92209000D02*
X121516000Y-92209000D01*
X116516000Y-92169000D02*
X117960000Y-92169000D01*
X120040000Y-92169000D02*
X121484000Y-92169000D01*
X116550000Y-92129000D02*
X117960000Y-92129000D01*
X120040000Y-92129000D02*
X121450000Y-92129000D01*
X116584000Y-92089000D02*
X117960000Y-92089000D01*
X120040000Y-92089000D02*
X121416000Y-92089000D01*
X116620000Y-92049000D02*
X117960000Y-92049000D01*
X120040000Y-92049000D02*
X121380000Y-92049000D01*
X116657000Y-92009000D02*
X117960000Y-92009000D01*
X120040000Y-92009000D02*
X121343000Y-92009000D01*
X116695000Y-91969000D02*
X117960000Y-91969000D01*
X120040000Y-91969000D02*
X121305000Y-91969000D01*
X116735000Y-91929000D02*
X121265000Y-91929000D01*
X116776000Y-91889000D02*
X121224000Y-91889000D01*
X116818000Y-91849000D02*
X121182000Y-91849000D01*
X116863000Y-91809000D02*
X121137000Y-91809000D01*
X116908000Y-91769000D02*
X121092000Y-91769000D01*
X116956000Y-91729000D02*
X121044000Y-91729000D01*
X117005000Y-91689000D02*
X120995000Y-91689000D01*
X117056000Y-91649000D02*
X120944000Y-91649000D01*
X117110000Y-91609000D02*
X120890000Y-91609000D01*
X117166000Y-91569000D02*
X120834000Y-91569000D01*
X117224000Y-91529000D02*
X120776000Y-91529000D01*
X117286000Y-91489000D02*
X120714000Y-91489000D01*
X117350000Y-91449000D02*
X120650000Y-91449000D01*
X117419000Y-91409000D02*
X120581000Y-91409000D01*
X117491000Y-91369000D02*
X120509000Y-91369000D01*
X117568000Y-91329000D02*
X120432000Y-91329000D01*
X117650000Y-91289000D02*
X120350000Y-91289000D01*
X117738000Y-91249000D02*
X120262000Y-91249000D01*
X117835000Y-91209000D02*
X120165000Y-91209000D01*
X117941000Y-91169000D02*
X120059000Y-91169000D01*
X118060000Y-91129000D02*
X119940000Y-91129000D01*
X118198000Y-91089000D02*
X119802000Y-91089000D01*
X118367000Y-91049000D02*
X119633000Y-91049000D01*
X118598000Y-91009000D02*
X119402000Y-91009000D01*
X122270000Y-94250000D02*
G75*
G02*
X115730000Y-94250000I-3270000J0D01*
G01*
X115730000Y-94250000D02*
G75*
G02*
X122270000Y-94250000I3270000J0D01*
G01*
%TO.C,Q1*%
X122450000Y-110950000D02*
X122450000Y-104530000D01*
X122450000Y-104530000D02*
X122180000Y-104530000D01*
X115550000Y-110950000D02*
X115550000Y-104530000D01*
X115550000Y-104530000D02*
X115820000Y-104530000D01*
X122470000Y-103350000D02*
X122140000Y-103110000D01*
X122470000Y-102870000D01*
X122470000Y-103350000D01*
G36*
X122470000Y-103350000D02*
G01*
X122140000Y-103110000D01*
X122470000Y-102870000D01*
X122470000Y-103350000D01*
G37*
%TD*%
%LPC*%
D13*
%TO.C,R4*%
X133912500Y-113500000D03*
X132087500Y-113500000D03*
%TD*%
%TO.C,R2*%
X130000000Y-113500000D03*
X128175000Y-113500000D03*
%TD*%
D14*
%TO.C,D2*%
X130225000Y-117000000D03*
D15*
X132765000Y-117000000D03*
%TD*%
D13*
%TO.C,R5*%
X134087500Y-96500000D03*
X132262500Y-96500000D03*
%TD*%
D14*
%TO.C,D4*%
X130400000Y-93000000D03*
D15*
X132940000Y-93000000D03*
%TD*%
D13*
%TO.C,R3*%
X130000000Y-96500000D03*
X128175000Y-96500000D03*
%TD*%
D16*
%TO.C,REF\u002A\u002A*%
X110000000Y-116000000D03*
%TD*%
%TO.C,REF\u002A\u002A*%
X110000000Y-94000000D03*
%TD*%
%TO.C,REF\u002A\u002A*%
X150000000Y-116000000D03*
%TD*%
%TO.C,REF\u002A\u002A*%
X150000000Y-94000000D03*
%TD*%
D17*
%TO.C,J4*%
X143040000Y-92500000D03*
D18*
X137960000Y-92500000D03*
%TD*%
D17*
%TO.C,J2*%
X137960000Y-117500000D03*
D18*
X143040000Y-117500000D03*
%TD*%
D17*
%TO.C,J1*%
X107500000Y-102920000D03*
D18*
X107500000Y-108000000D03*
%TD*%
D19*
%TO.C,R6*%
X121500000Y-98500000D03*
X121500000Y-100325000D03*
%TD*%
%TO.C,R1*%
X122500000Y-115587500D03*
X122500000Y-117412500D03*
%TD*%
D20*
%TO.C,F2*%
X130700000Y-102000000D03*
X135900000Y-102000000D03*
X146500000Y-102000000D03*
X151700000Y-102000000D03*
%TD*%
%TO.C,F1*%
X151800000Y-108000000D03*
X146600000Y-108000000D03*
X136000000Y-108000000D03*
X130800000Y-108000000D03*
%TD*%
D14*
%TO.C,D3*%
X117500000Y-117000000D03*
D15*
X120040000Y-117000000D03*
%TD*%
D21*
%TO.C,D1*%
X125000000Y-107750000D03*
X125000000Y-104250000D03*
%TD*%
D22*
%TO.C,C1*%
X119000000Y-95500000D03*
D23*
X119000000Y-93000000D03*
%TD*%
D24*
%TO.C,Q1*%
X121280000Y-102800000D03*
D25*
X119000000Y-109100000D03*
D24*
X116720000Y-102800000D03*
%TD*%
%LPD*%
M02*
