M48
; DRILL file {KiCad 8.0.1} date 2024-08-03T12:45:28+0200
; FORMAT={-:-/ absolute / metric / decimal}
; #@! TF.CreationDate,2024-08-03T12:45:28+02:00
; #@! TF.GenerationSoftware,Kicad,Pcbnew,8.0.1
; #@! TF.FileFunction,Plated,1,4,PTH
FMAT,2
METRIC
; #@! TA.AperFunction,Plated,PTH,ViaDrill
T1C0.200
; #@! TA.AperFunction,Plated,PTH,ViaDrill
T2C0.300
; #@! TA.AperFunction,Plated,PTH,ComponentDrill
T3C0.330
; #@! TA.AperFunction,Plated,PTH,ViaDrill
T4C0.350
; #@! TA.AperFunction,Plated,PTH,ComponentDrill
T5C0.600
; #@! TA.AperFunction,Plated,PTH,ComponentDrill
T6C0.900
; #@! TA.AperFunction,Plated,PTH,ComponentDrill
T7C1.000
; #@! TA.AperFunction,Plated,PTH,ComponentDrill
T8C1.520
; #@! TA.AperFunction,Plated,PTH,ComponentDrill
T9C3.200
%
G90
G05
T1
X117.75Y-74.75
X117.75Y-78.75
X118.0Y-82.75
X118.0Y-86.5
X118.0Y-90.5
X118.0Y-93.5
X118.0Y-96.5
X126.75Y-87.5
X126.775Y-93.775
X127.75Y-83.25
X127.75Y-93.75
X128.25Y-80.25
X129.0Y-115.25
X130.25Y-75.0
X132.25Y-91.25
X132.75Y-86.0
X133.0Y-82.0
X134.5Y-65.0
X135.5Y-87.0
X137.25Y-83.75
X138.0Y-94.25
X138.0Y-95.0
X138.0Y-95.75
X138.0Y-96.5
X138.0Y-97.25
X138.3Y-91.25
X138.5Y-65.5
X138.75Y-105.75
X139.0Y-67.0
X139.0Y-83.75
X139.25Y-75.0
X139.5Y-80.25
X139.5Y-105.25
X140.0Y-104.75
X140.5Y-80.25
X140.5Y-103.5
X140.75Y-83.75
X140.75Y-104.5
X141.5Y-75.25
X142.0Y-74.0
X142.25Y-110.5
X142.25Y-112.75
X142.5Y-83.75
X143.0Y-110.5
X143.0Y-112.75
X144.25Y-83.75
X144.25Y-87.0
X144.5Y-65.0
X145.75Y-111.0
X146.0Y-83.75
X146.0Y-87.0
X146.25Y-112.25
X147.0Y-81.5
X147.0Y-86.0
X147.0Y-112.25
X147.75Y-77.25
X147.75Y-78.0
X147.75Y-112.25
X147.75Y-125.25
X148.75Y-115.0
X149.58Y-101.0
X149.75Y-108.0
X149.903Y-104.352
X150.0Y-65.5
X150.0Y-72.75
X150.0Y-103.5
X150.0Y-107.25
X150.0Y-115.0
X150.0Y-121.0
X150.25Y-66.5
X150.25Y-74.75
X150.25Y-105.0
X150.5Y-101.0
X150.5Y-105.75
X150.5Y-121.5
X150.75Y-75.25
X150.75Y-115.25
X150.877Y-103.507
X151.25Y-106.25
X151.5Y-115.0
X151.5Y-125.75
X151.75Y-100.75
X151.75Y-103.5
X152.0Y-94.0
X152.0Y-95.75
X152.25Y-100.25
X152.5Y-115.0
X152.75Y-115.75
X153.0Y-82.25
X153.0Y-97.75
X153.006Y-101.0
X153.099Y-122.651
X153.25Y-85.75
X153.25Y-123.5
X153.5Y-121.0
X153.625Y-98.875
X153.75Y-118.75
X153.75Y-119.5
X153.75Y-122.25
X154.25Y-99.25
X154.256Y-114.794
X154.5Y-65.0
X154.5Y-72.5
X154.5Y-73.75
X154.5Y-119.5
X154.75Y-100.0
X154.995Y-100.75
X155.0Y-122.0
X155.5Y-72.5
X155.5Y-74.0
X155.5Y-112.0
X155.5Y-117.25
X156.0Y-86.75
X156.25Y-100.5
X156.25Y-112.0
X156.5Y-106.75
X156.5Y-119.5
X156.75Y-87.5
X156.75Y-100.0
X157.0Y-106.25
X157.0Y-112.0
X157.25Y-113.0
X157.25Y-113.75
X157.25Y-114.5
X157.25Y-119.5
X157.5Y-101.7
X157.6Y-101.0
X157.75Y-86.75
X158.0Y-119.5
X158.25Y-67.0
X158.25Y-116.5
X158.25Y-117.25
X158.25Y-118.0
X158.5Y-65.5
X158.75Y-112.25
X159.25Y-75.0
X159.5Y-80.25
X159.5Y-112.25
X159.75Y-105.75
X160.0Y-73.0
X160.25Y-109.181
X160.5Y-71.75
X160.5Y-106.75
X160.75Y-80.25
X161.0Y-109.5
X161.25Y-86.75
X161.25Y-106.75
X161.5Y-102.5
X161.5Y-105.0
X161.5Y-105.75
X161.5Y-110.25
X161.5Y-114.5
X162.25Y-102.5
X162.25Y-107.25
X162.25Y-110.25
X162.25Y-114.5
X162.5Y-71.75
X162.5Y-74.75
X163.0Y-102.5
X163.0Y-114.5
X163.5Y-109.25
X163.75Y-87.5
X163.75Y-104.5
X164.0Y-102.5
X164.25Y-72.442
X164.25Y-109.25
X164.5Y-65.0
X164.5Y-104.5
X164.5Y-106.25
X164.75Y-86.75
X164.75Y-102.5
X164.75Y-103.25
X165.25Y-89.5
X165.75Y-72.0
X166.0Y-89.5
X166.75Y-104.0
X168.5Y-65.5
X170.75Y-67.25
X170.75Y-72.5
X172.5Y-83.25
X172.75Y-97.5
X173.5Y-96.5
X174.25Y-81.0
X174.75Y-83.75
X177.0Y-71.25
X177.0Y-84.5
X177.25Y-82.25
X177.5Y-95.0
X178.0Y-98.25
X178.25Y-85.5
X178.5Y-84.0
X179.0Y-96.5
X182.0Y-84.0
X189.75Y-115.75
X191.75Y-115.0
X192.75Y-62.25
X193.75Y-79.25
X195.2Y-64.5
X197.75Y-85.25
X198.0Y-87.25
X199.25Y-87.5
X199.75Y-94.25
X201.25Y-92.0
X204.5Y-82.25
X204.75Y-64.25
X206.75Y-79.75
X206.75Y-80.5
X206.75Y-81.25
X207.25Y-82.0
X208.0Y-82.0
X208.75Y-82.0
T2
X120.0Y-104.0
X120.0Y-106.0
X122.75Y-105.34
X123.0Y-101.0
X123.0Y-109.0
X124.792Y-104.708
X126.75Y-101.5
X126.75Y-108.75
X127.686Y-101.5
X127.686Y-108.75
X128.814Y-101.5
X128.814Y-102.5
X128.814Y-107.75
X128.814Y-108.75
X131.5Y-50.0
X132.0Y-69.5
X132.0Y-70.5
X132.5Y-71.5
X133.0Y-57.5
X133.0Y-62.5
X133.0Y-80.0
X133.25Y-77.5
X133.5Y-71.5
X133.8Y-110.9
X134.0Y-57.5
X134.25Y-77.5
X134.25Y-81.25
X134.5Y-53.0
X134.5Y-72.0
X134.9Y-111.9
X135.5Y-62.5
X135.5Y-78.5
X135.75Y-72.25
X135.9Y-111.0
X136.5Y-78.186
X137.5Y-87.0
X137.6Y-77.6
X137.75Y-69.5
X137.75Y-73.5
X138.75Y-69.5
X138.75Y-73.5
X139.0Y-87.0
X140.0Y-67.5
X140.0Y-68.5
X140.25Y-74.5
X140.5Y-64.8
X140.5Y-110.75
X140.5Y-111.75
X140.5Y-112.75
X140.8Y-87.1
X141.25Y-74.5
X141.3Y-63.8
X142.2Y-77.686
X142.25Y-69.75
X142.25Y-70.75
X142.5Y-87.0
X142.75Y-71.75
X143.0Y-62.5
X143.0Y-92.9
X143.2Y-96.6
X143.5Y-50.5
X143.75Y-71.75
X143.835Y-55.585
X144.6Y-92.9
X144.6Y-96.4
X144.75Y-71.75
X145.0Y-77.0
X145.5Y-62.5
X145.75Y-71.75
X146.0Y-75.75
X146.2Y-92.8
X146.3Y-96.3
X147.0Y-71.75
X147.7Y-96.3
X147.75Y-73.5
X147.8Y-92.8
X148.75Y-72.186
X148.75Y-73.5
X149.0Y-110.5
X149.0Y-111.5
X149.7Y-96.8
X149.8Y-94.6
X150.0Y-67.5
X150.0Y-68.5
X150.0Y-92.5
X150.0Y-93.3
X150.0Y-98.2
X150.0Y-99.25
X150.0Y-100.25
X150.4Y-62.9
X150.5Y-64.8
X150.5Y-97.4
X151.564Y-68.5
X152.0Y-67.75
X152.75Y-73.0
X153.0Y-62.5
X153.25Y-80.0
X153.5Y-52.5
X153.5Y-77.5
X153.5Y-91.2
X153.7Y-95.1
X154.5Y-77.5
X155.2Y-91.2
X155.2Y-94.9
X155.5Y-62.5
X155.75Y-106.0
X156.25Y-96.564
X156.5Y-98.0
X156.5Y-99.0
X156.6Y-94.9
X157.0Y-97.0
X157.75Y-69.5
X157.75Y-73.5
X157.9Y-77.8
X158.2Y-95.0
X158.75Y-69.5
X158.75Y-73.5
X159.75Y-86.75
X160.0Y-67.5
X160.0Y-68.5
X160.5Y-74.5
X161.2Y-63.4
X161.5Y-74.5
X162.1Y-67.4
X162.1Y-68.3
X162.2Y-109.2
X162.5Y-57.0
X162.5Y-78.1
X162.9Y-89.4
X163.0Y-62.5
X163.25Y-86.75
X163.8Y-131.8
X165.0Y-55.5
X165.25Y-111.5
X165.25Y-113.0
X165.25Y-114.0
X165.5Y-62.5
X165.75Y-103.75
X166.25Y-111.5
X167.5Y-86.0
X167.75Y-69.5
X167.75Y-73.5
X168.0Y-81.5
X168.75Y-69.5
X168.75Y-73.5
X169.25Y-101.75
X169.25Y-106.75
X169.5Y-51.0
X170.0Y-68.0
X170.0Y-69.0
X174.25Y-72.5
X176.0Y-69.0
X176.0Y-70.0
X176.936Y-85.5
X176.936Y-86.5
X177.0Y-57.0
X177.0Y-58.0
X177.0Y-59.0
X177.0Y-68.0
X177.0Y-73.0
X178.0Y-80.0
X178.75Y-60.75
X179.25Y-72.25
X179.75Y-60.75
X180.25Y-72.25
X180.5Y-63.0
X180.5Y-74.0
X180.75Y-58.75
X180.75Y-85.25
X180.75Y-86.25
X181.0Y-70.0
X181.5Y-63.0
X181.5Y-74.0
X181.75Y-58.75
X182.0Y-70.0
X182.5Y-63.0
X182.5Y-74.0
X183.0Y-58.75
X183.0Y-70.0
X183.5Y-63.0
X183.5Y-74.0
X184.0Y-58.75
X184.0Y-70.0
X184.25Y-85.5
X184.25Y-86.5
X184.25Y-88.0
X184.5Y-63.0
X184.5Y-74.0
X185.0Y-58.75
X185.0Y-70.0
X185.5Y-63.0
X185.5Y-74.0
X185.5Y-88.0
X186.0Y-58.75
X186.0Y-70.0
X186.5Y-63.0
X186.5Y-88.0
X187.0Y-74.0
X187.0Y-117.9
X187.25Y-58.75
X187.5Y-63.0
X187.5Y-70.0
X187.5Y-88.0
X188.0Y-74.0
X188.25Y-55.25
X188.4Y-122.5
X188.5Y-67.0
X188.5Y-88.0
X188.6Y-117.8
X189.0Y-107.25
X189.25Y-55.25
X189.25Y-108.75
X189.4Y-120.4
X189.5Y-67.0
X189.5Y-88.0
X190.0Y-108.0
X190.25Y-55.25
X190.5Y-67.0
X191.1Y-81.8
X191.25Y-55.25
X191.5Y-67.0
X191.7Y-84.9
X196.564Y-92.8
X196.976Y-88.176
X197.1Y-90.5
X197.1Y-95.4
X197.1Y-96.2
X197.6Y-91.7
X197.6Y-92.8
X198.4Y-91.7
X198.4Y-92.8
X198.5Y-89.4
X198.649Y-57.475
X198.8Y-60.9
X198.925Y-69.175
X199.5Y-72.5
X199.652Y-57.351
X199.75Y-60.95
X199.75Y-69.0
X200.0Y-79.0
X200.3Y-72.5
X200.75Y-57.5
X200.75Y-61.5
X200.75Y-69.0
X201.0Y-55.5
X202.0Y-66.75
X202.0Y-79.0
X202.75Y-57.75
X203.5Y-60.5
X203.75Y-55.25
X204.0Y-71.4
X204.25Y-67.0
X204.3Y-75.8
X204.5Y-55.75
X204.5Y-56.75
X204.7Y-62.2
X205.25Y-67.5
X205.25Y-68.5
X206.5Y-100.0
X207.25Y-93.0
X207.25Y-94.0
X207.25Y-95.0
X207.25Y-96.0
X207.25Y-97.0
X207.25Y-98.0
X207.25Y-99.5
X207.7Y-62.3
X207.8Y-60.1
X208.5Y-71.3
X208.5Y-73.5
T3
X133.7Y-66.475
X133.7Y-67.775
X135.0Y-66.475
X135.0Y-67.775
X136.3Y-66.475
X136.3Y-67.775
X143.7Y-66.475
X143.7Y-67.775
X145.0Y-66.475
X145.0Y-67.775
X146.3Y-66.475
X146.3Y-67.775
X153.7Y-66.475
X153.7Y-67.775
X155.0Y-66.475
X155.0Y-67.775
X156.3Y-66.475
X156.3Y-67.775
X163.7Y-66.475
X163.7Y-67.775
X165.0Y-66.475
X165.0Y-67.775
X166.3Y-66.475
X166.3Y-67.775
T4
X135.5Y-60.0
X135.5Y-61.0
X136.0Y-59.0
X137.0Y-59.0
X138.0Y-59.0
X139.5Y-59.0
X140.5Y-59.0
X141.0Y-60.0
X141.0Y-61.0
X145.5Y-60.0
X145.5Y-61.0
X146.0Y-59.0
X147.0Y-59.0
X148.0Y-59.0
X149.5Y-59.0
X150.5Y-59.0
X151.0Y-60.0
X151.0Y-61.0
X156.0Y-60.0
X156.0Y-61.0
X156.5Y-59.0
X157.5Y-59.0
X158.5Y-59.0
X160.0Y-59.0
X161.0Y-59.0
X161.5Y-60.0
X161.5Y-61.0
X166.0Y-60.0
X166.0Y-61.0
X166.5Y-59.0
X167.5Y-59.0
X168.5Y-59.0
X170.0Y-59.0
X171.0Y-59.0
X171.5Y-60.0
X171.5Y-61.0
X171.5Y-64.0
X174.5Y-64.25
X175.0Y-50.5
X178.25Y-67.0
X179.0Y-50.25
X179.0Y-56.0
X179.0Y-65.25
X183.1Y-101.09
X183.1Y-101.945
X183.1Y-102.8
X183.1Y-103.655
X183.1Y-104.51
X187.1Y-48.25
X188.35Y-48.25
X188.6Y-49.5
X188.6Y-50.75
X189.4Y-105.1
X189.4Y-106.0
X190.6Y-106.6
X191.1Y-89.6
X191.1Y-91.7
X191.1Y-99.0
X191.8Y-106.5
X196.998Y-99.193
X197.0Y-100.9
X197.0Y-101.9
X197.0Y-103.0
X197.0Y-104.0
X197.006Y-100.048
X199.0Y-105.5
T6
X137.325Y-54.84
X138.47Y-52.3
X139.365Y-54.84
X140.51Y-52.3
X141.405Y-54.84
X142.55Y-52.3
X157.325Y-54.84
X158.47Y-52.3
X159.365Y-54.84
X160.51Y-52.3
X161.405Y-54.84
X162.55Y-52.3
T7
X131.88Y-125.5
X134.42Y-125.5
X136.96Y-125.5
X139.5Y-125.5
X149.13Y-127.46
X149.13Y-130.0
X151.67Y-127.46
X151.67Y-130.0
X154.21Y-127.46
X154.21Y-130.0
X156.75Y-127.46
X156.75Y-130.0
X159.29Y-127.46
X159.29Y-130.0
X175.5Y-125.5
X178.04Y-125.5
X180.58Y-125.5
X183.12Y-125.5
X190.055Y-125.5
X192.595Y-125.5
X195.135Y-125.5
T8
X207.5Y-112.42
X207.5Y-117.5
T9
X120.0Y-50.0
X120.0Y-135.0
X205.0Y-135.0
X206.0Y-50.0
T5
X117.145Y-100.68G85X116.345Y-100.68
G05
X117.145Y-109.32G85X116.345Y-109.32
G05
X121.475Y-100.68G85X120.375Y-100.68
G05
X121.475Y-109.32G85X120.375Y-109.32
G05
M30
