G04 #@! TF.GenerationSoftware,KiCad,Pcbnew,8.0.1*
G04 #@! TF.CreationDate,2024-08-03T12:43:22+02:00*
G04 #@! TF.ProjectId,stepper_controller_v2,73746570-7065-4725-9f63-6f6e74726f6c,rev?*
G04 #@! TF.SameCoordinates,Original*
G04 #@! TF.FileFunction,Legend,Bot*
G04 #@! TF.FilePolarity,Positive*
%FSLAX46Y46*%
G04 Gerber Fmt 4.6, Leading zero omitted, Abs format (unit mm)*
G04 Created by KiCad (PCBNEW 8.0.1) date 2024-08-03 12:43:22*
%MOMM*%
%LPD*%
G01*
G04 APERTURE LIST*
G04 Aperture macros list*
%AMRoundRect*
0 Rectangle with rounded corners*
0 $1 Rounding radius*
0 $2 $3 $4 $5 $6 $7 $8 $9 X,Y pos of 4 corners*
0 Add a 4 corners polygon primitive as box body*
4,1,4,$2,$3,$4,$5,$6,$7,$8,$9,$2,$3,0*
0 Add four circle primitives for the rounded corners*
1,1,$1+$1,$2,$3*
1,1,$1+$1,$4,$5*
1,1,$1+$1,$6,$7*
1,1,$1+$1,$8,$9*
0 Add four rect primitives between the rounded corners*
20,1,$1+$1,$2,$3,$4,$5,0*
20,1,$1+$1,$4,$5,$6,$7,0*
20,1,$1+$1,$6,$7,$8,$9,0*
20,1,$1+$1,$8,$9,$2,$3,0*%
G04 Aperture macros list end*
%ADD10C,2.300000*%
%ADD11R,1.520000X1.520000*%
%ADD12C,1.520000*%
%ADD13C,0.770000*%
%ADD14R,1.700000X1.700000*%
%ADD15O,1.700000X1.700000*%
%ADD16RoundRect,0.250000X0.600000X-0.600000X0.600000X0.600000X-0.600000X0.600000X-0.600000X-0.600000X0*%
%ADD17C,1.700000*%
%ADD18C,5.600000*%
%ADD19R,3.000000X3.000000*%
%ADD20C,3.000000*%
%ADD21C,0.650000*%
%ADD22O,2.100000X1.000000*%
%ADD23O,1.800000X1.000000*%
G04 APERTURE END LIST*
%LPC*%
D10*
X146000000Y-50000000D03*
X134000000Y-50000000D03*
D11*
X137325000Y-54840000D03*
D12*
X138470000Y-52300000D03*
X139365000Y-54840000D03*
X140510000Y-52300000D03*
X141405000Y-54840000D03*
X142550000Y-52300000D03*
D13*
X143700000Y-67775000D03*
X145000000Y-67775000D03*
X146300000Y-67775000D03*
X143700000Y-66475000D03*
X145000000Y-66475000D03*
X146300000Y-66475000D03*
X163700000Y-67775000D03*
X165000000Y-67775000D03*
X166300000Y-67775000D03*
X163700000Y-66475000D03*
X165000000Y-66475000D03*
X166300000Y-66475000D03*
D14*
X190055000Y-125500000D03*
D15*
X192595000Y-125500000D03*
X195135000Y-125500000D03*
D16*
X149130000Y-130000000D03*
D17*
X149130000Y-127460000D03*
X151670000Y-130000000D03*
X151670000Y-127460000D03*
X154210000Y-130000000D03*
X154210000Y-127460000D03*
X156750000Y-130000000D03*
X156750000Y-127460000D03*
X159290000Y-130000000D03*
X159290000Y-127460000D03*
D13*
X133700000Y-67775000D03*
X135000000Y-67775000D03*
X136300000Y-67775000D03*
X133700000Y-66475000D03*
X135000000Y-66475000D03*
X136300000Y-66475000D03*
D18*
X206000000Y-50000000D03*
X120000000Y-50000000D03*
D19*
X207500000Y-117500000D03*
D20*
X207500000Y-112420000D03*
D14*
X175500000Y-125500000D03*
D15*
X178040000Y-125500000D03*
X180580000Y-125500000D03*
X183120000Y-125500000D03*
D18*
X120000000Y-135000000D03*
D10*
X166000000Y-50000000D03*
X154000000Y-50000000D03*
D11*
X157325000Y-54840000D03*
D12*
X158470000Y-52300000D03*
X159365000Y-54840000D03*
X160510000Y-52300000D03*
X161405000Y-54840000D03*
X162550000Y-52300000D03*
D21*
X120425000Y-102110000D03*
X120425000Y-107890000D03*
D22*
X120925000Y-100680000D03*
D23*
X116745000Y-100680000D03*
D22*
X120925000Y-109320000D03*
D23*
X116745000Y-109320000D03*
D13*
X153700000Y-67775000D03*
X155000000Y-67775000D03*
X156300000Y-67775000D03*
X153700000Y-66475000D03*
X155000000Y-66475000D03*
X156300000Y-66475000D03*
D14*
X131880000Y-125500000D03*
D15*
X134420000Y-125500000D03*
X136960000Y-125500000D03*
X139500000Y-125500000D03*
D18*
X205000000Y-135000000D03*
%LPD*%
M02*
