G04 #@! TF.GenerationSoftware,KiCad,Pcbnew,8.0.1*
G04 #@! TF.CreationDate,2024-08-03T12:43:22+02:00*
G04 #@! TF.ProjectId,stepper_controller_v2,73746570-7065-4725-9f63-6f6e74726f6c,rev?*
G04 #@! TF.SameCoordinates,Original*
G04 #@! TF.FileFunction,Paste,Top*
G04 #@! TF.FilePolarity,Positive*
%FSLAX46Y46*%
G04 Gerber Fmt 4.6, Leading zero omitted, Abs format (unit mm)*
G04 Created by KiCad (PCBNEW 8.0.1) date 2024-08-03 12:43:22*
%MOMM*%
%LPD*%
G01*
G04 APERTURE LIST*
G04 Aperture macros list*
%AMRoundRect*
0 Rectangle with rounded corners*
0 $1 Rounding radius*
0 $2 $3 $4 $5 $6 $7 $8 $9 X,Y pos of 4 corners*
0 Add a 4 corners polygon primitive as box body*
4,1,4,$2,$3,$4,$5,$6,$7,$8,$9,$2,$3,0*
0 Add four circle primitives for the rounded corners*
1,1,$1+$1,$2,$3*
1,1,$1+$1,$4,$5*
1,1,$1+$1,$6,$7*
1,1,$1+$1,$8,$9*
0 Add four rect primitives between the rounded corners*
20,1,$1+$1,$2,$3,$4,$5,0*
20,1,$1+$1,$4,$5,$6,$7,0*
20,1,$1+$1,$6,$7,$8,$9,0*
20,1,$1+$1,$8,$9,$2,$3,0*%
G04 Aperture macros list end*
%ADD10RoundRect,0.225000X-0.250000X0.225000X-0.250000X-0.225000X0.250000X-0.225000X0.250000X0.225000X0*%
%ADD11RoundRect,0.250000X-0.475000X0.250000X-0.475000X-0.250000X0.475000X-0.250000X0.475000X0.250000X0*%
%ADD12RoundRect,0.225000X-0.225000X-0.250000X0.225000X-0.250000X0.225000X0.250000X-0.225000X0.250000X0*%
%ADD13RoundRect,0.200000X-0.275000X0.200000X-0.275000X-0.200000X0.275000X-0.200000X0.275000X0.200000X0*%
%ADD14RoundRect,0.200000X0.275000X-0.200000X0.275000X0.200000X-0.275000X0.200000X-0.275000X-0.200000X0*%
%ADD15R,3.100000X2.400000*%
%ADD16R,0.500000X2.200000*%
%ADD17RoundRect,0.200000X-0.200000X-0.275000X0.200000X-0.275000X0.200000X0.275000X-0.200000X0.275000X0*%
%ADD18R,1.400000X1.200000*%
%ADD19RoundRect,0.250000X-0.250000X-0.475000X0.250000X-0.475000X0.250000X0.475000X-0.250000X0.475000X0*%
%ADD20RoundRect,0.218750X-0.218750X-0.256250X0.218750X-0.256250X0.218750X0.256250X-0.218750X0.256250X0*%
%ADD21RoundRect,0.112500X-0.187500X-0.112500X0.187500X-0.112500X0.187500X0.112500X-0.187500X0.112500X0*%
%ADD22RoundRect,0.218750X0.218750X0.256250X-0.218750X0.256250X-0.218750X-0.256250X0.218750X-0.256250X0*%
%ADD23RoundRect,0.337500X-0.337500X-0.562500X0.337500X-0.562500X0.337500X0.562500X-0.337500X0.562500X0*%
%ADD24RoundRect,0.375000X0.625000X0.375000X-0.625000X0.375000X-0.625000X-0.375000X0.625000X-0.375000X0*%
%ADD25RoundRect,0.500000X0.500000X1.400000X-0.500000X1.400000X-0.500000X-1.400000X0.500000X-1.400000X0*%
%ADD26RoundRect,0.250000X0.850000X0.350000X-0.850000X0.350000X-0.850000X-0.350000X0.850000X-0.350000X0*%
%ADD27RoundRect,0.250000X1.275000X1.125000X-1.275000X1.125000X-1.275000X-1.125000X1.275000X-1.125000X0*%
%ADD28R,2.200000X7.500000*%
%ADD29RoundRect,0.225000X0.225000X0.250000X-0.225000X0.250000X-0.225000X-0.250000X0.225000X-0.250000X0*%
%ADD30RoundRect,0.150000X-0.150000X0.825000X-0.150000X-0.825000X0.150000X-0.825000X0.150000X0.825000X0*%
%ADD31RoundRect,0.225000X0.250000X-0.225000X0.250000X0.225000X-0.250000X0.225000X-0.250000X-0.225000X0*%
%ADD32RoundRect,0.200000X0.200000X0.275000X-0.200000X0.275000X-0.200000X-0.275000X0.200000X-0.275000X0*%
%ADD33RoundRect,0.150000X-0.425000X0.150000X-0.425000X-0.150000X0.425000X-0.150000X0.425000X0.150000X0*%
%ADD34RoundRect,0.075000X-0.500000X0.075000X-0.500000X-0.075000X0.500000X-0.075000X0.500000X0.075000X0*%
%ADD35O,2.100000X1.000000*%
%ADD36O,1.800000X1.000000*%
%ADD37RoundRect,0.250000X-0.375000X-1.075000X0.375000X-1.075000X0.375000X1.075000X-0.375000X1.075000X0*%
%ADD38RoundRect,0.150000X-0.512500X-0.150000X0.512500X-0.150000X0.512500X0.150000X-0.512500X0.150000X0*%
%ADD39RoundRect,0.075000X0.700000X0.075000X-0.700000X0.075000X-0.700000X-0.075000X0.700000X-0.075000X0*%
%ADD40RoundRect,0.075000X0.075000X0.700000X-0.075000X0.700000X-0.075000X-0.700000X0.075000X-0.700000X0*%
%ADD41RoundRect,0.250000X0.250000X0.475000X-0.250000X0.475000X-0.250000X-0.475000X0.250000X-0.475000X0*%
G04 APERTURE END LIST*
D10*
X157250000Y-117225000D03*
X157250000Y-118775000D03*
D11*
X186250000Y-59800000D03*
X186250000Y-61700000D03*
D12*
X195525000Y-89400000D03*
X197075000Y-89400000D03*
D13*
X144250000Y-84425000D03*
X144250000Y-86075000D03*
D14*
X153600000Y-93925000D03*
X153600000Y-92275000D03*
D15*
X145000000Y-67125000D03*
D16*
X143095000Y-70000000D03*
X144365000Y-70000000D03*
X145635000Y-70000000D03*
X146905000Y-70000000D03*
X146905000Y-64250000D03*
X145635000Y-64250000D03*
X144365000Y-64250000D03*
X143095000Y-64250000D03*
D17*
X125125000Y-86545000D03*
X126775000Y-86545000D03*
D18*
X165800000Y-106750000D03*
X168000000Y-106750000D03*
X168000000Y-105050000D03*
X165800000Y-105050000D03*
D13*
X169000000Y-66425000D03*
X169000000Y-68075000D03*
D14*
X147800000Y-95500000D03*
X147800000Y-93850000D03*
D15*
X165000000Y-67125000D03*
D16*
X163095000Y-70000000D03*
X164365000Y-70000000D03*
X165635000Y-70000000D03*
X166905000Y-70000000D03*
X166905000Y-64250000D03*
X165635000Y-64250000D03*
X164365000Y-64250000D03*
X163095000Y-64250000D03*
D19*
X162250000Y-113250000D03*
X164150000Y-113250000D03*
D10*
X159500000Y-84225000D03*
X159500000Y-85775000D03*
D20*
X122287500Y-96500000D03*
X123862500Y-96500000D03*
D21*
X187000000Y-108000000D03*
X189100000Y-108000000D03*
D22*
X202750000Y-98500000D03*
X201175000Y-98500000D03*
D23*
X119200000Y-74745000D03*
X123300000Y-74795000D03*
D10*
X154500000Y-78450000D03*
X154500000Y-80000000D03*
D13*
X135500000Y-84425000D03*
X135500000Y-86075000D03*
D15*
X135000000Y-67125000D03*
D16*
X133095000Y-70000000D03*
X134365000Y-70000000D03*
X135635000Y-70000000D03*
X136905000Y-70000000D03*
X136905000Y-64250000D03*
X135635000Y-64250000D03*
X134365000Y-64250000D03*
X133095000Y-64250000D03*
D14*
X152800000Y-118825000D03*
X152800000Y-117175000D03*
D10*
X163000000Y-84225000D03*
X163000000Y-85775000D03*
D12*
X148750000Y-63750000D03*
X150300000Y-63750000D03*
D24*
X191150000Y-105100000D03*
X191150000Y-102800000D03*
D25*
X184850000Y-102800000D03*
D24*
X191150000Y-100500000D03*
D11*
X186500000Y-71100000D03*
X186500000Y-73000000D03*
D13*
X156000000Y-84175000D03*
X156000000Y-85825000D03*
D10*
X165800000Y-108500000D03*
X165800000Y-110050000D03*
D14*
X156800000Y-93950000D03*
X156800000Y-92300000D03*
D17*
X206900000Y-72325000D03*
X208550000Y-72325000D03*
X178100000Y-82250000D03*
X179750000Y-82250000D03*
D14*
X155200000Y-93925000D03*
X155200000Y-92275000D03*
D26*
X193125000Y-93955000D03*
D27*
X188500000Y-93200000D03*
X188500000Y-90150000D03*
X185150000Y-93200000D03*
X185150000Y-90150000D03*
D26*
X193125000Y-89395000D03*
D28*
X196000000Y-71250000D03*
X190000000Y-71250000D03*
D29*
X143000000Y-111750000D03*
X141450000Y-111750000D03*
X202050000Y-74250000D03*
X200500000Y-74250000D03*
D17*
X125175000Y-74795000D03*
X126825000Y-74795000D03*
X204500000Y-96750000D03*
X206150000Y-96750000D03*
D12*
X138700000Y-63750000D03*
X140250000Y-63750000D03*
D10*
X139000000Y-84475000D03*
X139000000Y-86025000D03*
D13*
X164750000Y-84175000D03*
X164750000Y-85825000D03*
D17*
X174350000Y-82250000D03*
X176000000Y-82250000D03*
D30*
X143770000Y-76500000D03*
X142500000Y-76500000D03*
X141230000Y-76500000D03*
X139960000Y-76500000D03*
X138690000Y-76500000D03*
X137420000Y-76500000D03*
X136150000Y-76500000D03*
X136150000Y-81450000D03*
X137420000Y-81450000D03*
X138690000Y-81450000D03*
X139960000Y-81450000D03*
X141230000Y-81450000D03*
X142500000Y-81450000D03*
X143770000Y-81450000D03*
D13*
X183250000Y-83925000D03*
X183250000Y-85575000D03*
D17*
X199100000Y-68000000D03*
X200750000Y-68000000D03*
D14*
X154250000Y-85825000D03*
X154250000Y-84175000D03*
D12*
X162250000Y-103500000D03*
X163800000Y-103500000D03*
D22*
X202750000Y-95000000D03*
X201175000Y-95000000D03*
D14*
X158400000Y-93950000D03*
X158400000Y-92300000D03*
X143000000Y-95500000D03*
X143000000Y-93850000D03*
X146200000Y-95500000D03*
X146200000Y-93850000D03*
D23*
X119200000Y-86450000D03*
X123300000Y-86500000D03*
D13*
X179750000Y-83925000D03*
X179750000Y-85575000D03*
D12*
X195525000Y-94100000D03*
X197075000Y-94100000D03*
D31*
X149000000Y-99775000D03*
X149000000Y-98225000D03*
D32*
X120650000Y-90500000D03*
X119000000Y-90500000D03*
D17*
X125000000Y-82795000D03*
X126650000Y-82795000D03*
X181600000Y-82250000D03*
X183250000Y-82250000D03*
D31*
X151250000Y-94000000D03*
X151250000Y-92450000D03*
D33*
X121500000Y-101800000D03*
X121500000Y-102600000D03*
D34*
X121500000Y-103750000D03*
X121500000Y-104750000D03*
X121500000Y-105250000D03*
X121500000Y-106250000D03*
D33*
X121500000Y-107400000D03*
X121500000Y-108200000D03*
X121500000Y-108200000D03*
X121500000Y-107400000D03*
D34*
X121500000Y-106750000D03*
X121500000Y-105750000D03*
X121500000Y-104250000D03*
X121500000Y-103250000D03*
D33*
X121500000Y-102600000D03*
X121500000Y-101800000D03*
D35*
X120925000Y-100680000D03*
D36*
X116745000Y-100680000D03*
D35*
X120925000Y-109320000D03*
D36*
X116745000Y-109320000D03*
D14*
X166500000Y-85825000D03*
X166500000Y-84175000D03*
X140750000Y-86075000D03*
X140750000Y-84425000D03*
D10*
X142500000Y-84475000D03*
X142500000Y-86025000D03*
D37*
X146850000Y-61000000D03*
X149650000Y-61000000D03*
D31*
X155500000Y-98875000D03*
X155500000Y-97325000D03*
D17*
X125100000Y-78795000D03*
X126750000Y-78795000D03*
D19*
X193400000Y-102900000D03*
X195300000Y-102900000D03*
D14*
X133750000Y-86075000D03*
X133750000Y-84425000D03*
D38*
X200225000Y-69800000D03*
X200225000Y-70750000D03*
X200225000Y-71700000D03*
X202500000Y-71700000D03*
X202500000Y-70750000D03*
X202500000Y-69800000D03*
D12*
X162250000Y-108250000D03*
X163800000Y-108250000D03*
D13*
X187000000Y-118775000D03*
X187000000Y-120425000D03*
D20*
X122250000Y-93500000D03*
X123825000Y-93500000D03*
D39*
X158500000Y-111675000D03*
X158500000Y-111175000D03*
X158500000Y-110675000D03*
X158500000Y-110175000D03*
X158500000Y-109675000D03*
X158500000Y-109175000D03*
X158500000Y-108675000D03*
X158500000Y-108175000D03*
X158500000Y-107675000D03*
X158500000Y-107175000D03*
X158500000Y-106675000D03*
X158500000Y-106175000D03*
X158500000Y-105675000D03*
X158500000Y-105175000D03*
X158500000Y-104675000D03*
X158500000Y-104175000D03*
D40*
X156575000Y-102250000D03*
X156075000Y-102250000D03*
X155575000Y-102250000D03*
X155075000Y-102250000D03*
X154575000Y-102250000D03*
X154075000Y-102250000D03*
X153575000Y-102250000D03*
X153075000Y-102250000D03*
X152575000Y-102250000D03*
X152075000Y-102250000D03*
X151575000Y-102250000D03*
X151075000Y-102250000D03*
X150575000Y-102250000D03*
X150075000Y-102250000D03*
X149575000Y-102250000D03*
X149075000Y-102250000D03*
D39*
X147150000Y-104175000D03*
X147150000Y-104675000D03*
X147150000Y-105175000D03*
X147150000Y-105675000D03*
X147150000Y-106175000D03*
X147150000Y-106675000D03*
X147150000Y-107175000D03*
X147150000Y-107675000D03*
X147150000Y-108175000D03*
X147150000Y-108675000D03*
X147150000Y-109175000D03*
X147150000Y-109675000D03*
X147150000Y-110175000D03*
X147150000Y-110675000D03*
X147150000Y-111175000D03*
X147150000Y-111675000D03*
D40*
X149075000Y-113600000D03*
X149575000Y-113600000D03*
X150075000Y-113600000D03*
X150575000Y-113600000D03*
X151075000Y-113600000D03*
X151575000Y-113600000D03*
X152075000Y-113600000D03*
X152575000Y-113600000D03*
X153075000Y-113600000D03*
X153575000Y-113600000D03*
X154075000Y-113600000D03*
X154575000Y-113600000D03*
X155075000Y-113600000D03*
X155575000Y-113600000D03*
X156075000Y-113600000D03*
X156575000Y-113600000D03*
D17*
X125675000Y-106000000D03*
X127325000Y-106000000D03*
D13*
X139000000Y-66350000D03*
X139000000Y-68000000D03*
D12*
X162250000Y-105250000D03*
X163800000Y-105250000D03*
D14*
X157750000Y-85825000D03*
X157750000Y-84175000D03*
D41*
X195350000Y-100500000D03*
X193450000Y-100500000D03*
D15*
X155000000Y-67125000D03*
D16*
X153095000Y-70000000D03*
X154365000Y-70000000D03*
X155635000Y-70000000D03*
X156905000Y-70000000D03*
X156905000Y-64250000D03*
X155635000Y-64250000D03*
X154365000Y-64250000D03*
X153095000Y-64250000D03*
D17*
X204500000Y-98500000D03*
X206150000Y-98500000D03*
D14*
X146000000Y-86075000D03*
X146000000Y-84425000D03*
D11*
X181750000Y-71100000D03*
X181750000Y-73000000D03*
D30*
X164000000Y-76550000D03*
X162730000Y-76550000D03*
X161460000Y-76550000D03*
X160190000Y-76550000D03*
X158920000Y-76550000D03*
X157650000Y-76550000D03*
X156380000Y-76550000D03*
X156380000Y-81500000D03*
X157650000Y-81500000D03*
X158920000Y-81500000D03*
X160190000Y-81500000D03*
X161460000Y-81500000D03*
X162730000Y-81500000D03*
X164000000Y-81500000D03*
D32*
X120650000Y-96500000D03*
X119000000Y-96500000D03*
D13*
X149000000Y-66425000D03*
X149000000Y-68075000D03*
D14*
X137250000Y-86075000D03*
X137250000Y-84425000D03*
D17*
X204500000Y-95000000D03*
X206150000Y-95000000D03*
X125675000Y-107750000D03*
X127325000Y-107750000D03*
D20*
X122250000Y-90500000D03*
X123825000Y-90500000D03*
D17*
X125675000Y-102500000D03*
X127325000Y-102500000D03*
D32*
X151325000Y-95750000D03*
X149675000Y-95750000D03*
D14*
X161250000Y-85825000D03*
X161250000Y-84175000D03*
D13*
X188600000Y-118750000D03*
X188600000Y-120400000D03*
D23*
X119150000Y-78745000D03*
X123250000Y-78795000D03*
D14*
X134900000Y-110950000D03*
X134900000Y-109300000D03*
D37*
X167100000Y-61000000D03*
X169900000Y-61000000D03*
D13*
X176000000Y-83850000D03*
X176000000Y-85500000D03*
D12*
X168700000Y-63750000D03*
X170250000Y-63750000D03*
X158750000Y-63750000D03*
X160300000Y-63750000D03*
D37*
X157100000Y-61000000D03*
X159900000Y-61000000D03*
D28*
X195750000Y-59750000D03*
X189750000Y-59750000D03*
D23*
X119225000Y-82745000D03*
X123325000Y-82795000D03*
D10*
X154500000Y-117200000D03*
X154500000Y-118750000D03*
D37*
X136850000Y-61000000D03*
X139650000Y-61000000D03*
D38*
X199750000Y-58350000D03*
X199750000Y-59300000D03*
X199750000Y-60250000D03*
X202025000Y-60250000D03*
X202025000Y-59300000D03*
X202025000Y-58350000D03*
D22*
X202787500Y-93250000D03*
X201212500Y-93250000D03*
D11*
X184250000Y-71100000D03*
X184250000Y-73000000D03*
D17*
X125675000Y-104490000D03*
X127325000Y-104490000D03*
D22*
X202750000Y-96750000D03*
X201175000Y-96750000D03*
D17*
X201925000Y-56500000D03*
X203575000Y-56500000D03*
D14*
X204700000Y-61250000D03*
X204700000Y-59600000D03*
D12*
X162225000Y-111250000D03*
X163775000Y-111250000D03*
D13*
X159000000Y-66175000D03*
X159000000Y-67825000D03*
D17*
X206275000Y-61200000D03*
X207925000Y-61200000D03*
D14*
X144600000Y-95500000D03*
X144600000Y-93850000D03*
D17*
X198600000Y-56500000D03*
X200250000Y-56500000D03*
D10*
X134250000Y-78475000D03*
X134250000Y-80025000D03*
D31*
X168050000Y-103250000D03*
X168050000Y-101700000D03*
D17*
X204475000Y-93200000D03*
X206125000Y-93200000D03*
D11*
X181750000Y-59800000D03*
X181750000Y-61700000D03*
X184000000Y-59800000D03*
X184000000Y-61700000D03*
D29*
X201500000Y-62250000D03*
X199950000Y-62250000D03*
D17*
X202425000Y-68000000D03*
X204075000Y-68000000D03*
D14*
X205400000Y-72425000D03*
X205400000Y-70775000D03*
D32*
X120650000Y-93500000D03*
X119000000Y-93500000D03*
M02*
