G04 #@! TF.GenerationSoftware,KiCad,Pcbnew,8.0.1*
G04 #@! TF.CreationDate,2024-08-03T12:43:22+02:00*
G04 #@! TF.ProjectId,stepper_controller_v2,73746570-7065-4725-9f63-6f6e74726f6c,rev?*
G04 #@! TF.SameCoordinates,Original*
G04 #@! TF.FileFunction,Copper,L4,Bot*
G04 #@! TF.FilePolarity,Positive*
%FSLAX46Y46*%
G04 Gerber Fmt 4.6, Leading zero omitted, Abs format (unit mm)*
G04 Created by KiCad (PCBNEW 8.0.1) date 2024-08-03 12:43:22*
%MOMM*%
%LPD*%
G01*
G04 APERTURE LIST*
G04 Aperture macros list*
%AMRoundRect*
0 Rectangle with rounded corners*
0 $1 Rounding radius*
0 $2 $3 $4 $5 $6 $7 $8 $9 X,Y pos of 4 corners*
0 Add a 4 corners polygon primitive as box body*
4,1,4,$2,$3,$4,$5,$6,$7,$8,$9,$2,$3,0*
0 Add four circle primitives for the rounded corners*
1,1,$1+$1,$2,$3*
1,1,$1+$1,$4,$5*
1,1,$1+$1,$6,$7*
1,1,$1+$1,$8,$9*
0 Add four rect primitives between the rounded corners*
20,1,$1+$1,$2,$3,$4,$5,0*
20,1,$1+$1,$4,$5,$6,$7,0*
20,1,$1+$1,$6,$7,$8,$9,0*
20,1,$1+$1,$8,$9,$2,$3,0*%
G04 Aperture macros list end*
G04 #@! TA.AperFunction,ComponentPad*
%ADD10R,1.520000X1.520000*%
G04 #@! TD*
G04 #@! TA.AperFunction,ComponentPad*
%ADD11C,1.520000*%
G04 #@! TD*
G04 #@! TA.AperFunction,ComponentPad*
%ADD12C,0.630000*%
G04 #@! TD*
G04 #@! TA.AperFunction,SMDPad,CuDef*
%ADD13R,3.300000X2.600000*%
G04 #@! TD*
G04 #@! TA.AperFunction,ComponentPad*
%ADD14R,1.700000X1.700000*%
G04 #@! TD*
G04 #@! TA.AperFunction,ComponentPad*
%ADD15O,1.700000X1.700000*%
G04 #@! TD*
G04 #@! TA.AperFunction,ComponentPad*
%ADD16RoundRect,0.250000X0.600000X-0.600000X0.600000X0.600000X-0.600000X0.600000X-0.600000X-0.600000X0*%
G04 #@! TD*
G04 #@! TA.AperFunction,ComponentPad*
%ADD17C,1.700000*%
G04 #@! TD*
G04 #@! TA.AperFunction,ComponentPad*
%ADD18C,5.600000*%
G04 #@! TD*
G04 #@! TA.AperFunction,ComponentPad*
%ADD19R,3.000000X3.000000*%
G04 #@! TD*
G04 #@! TA.AperFunction,ComponentPad*
%ADD20C,3.000000*%
G04 #@! TD*
G04 #@! TA.AperFunction,ComponentPad*
%ADD21O,2.100000X1.000000*%
G04 #@! TD*
G04 #@! TA.AperFunction,ComponentPad*
%ADD22O,1.800000X1.000000*%
G04 #@! TD*
G04 #@! TA.AperFunction,ViaPad*
%ADD23C,0.460000*%
G04 #@! TD*
G04 #@! TA.AperFunction,ViaPad*
%ADD24C,0.700000*%
G04 #@! TD*
G04 #@! TA.AperFunction,ViaPad*
%ADD25C,0.600000*%
G04 #@! TD*
G04 #@! TA.AperFunction,Conductor*
%ADD26C,0.300000*%
G04 #@! TD*
G04 #@! TA.AperFunction,Conductor*
%ADD27C,0.128000*%
G04 #@! TD*
G04 #@! TA.AperFunction,Conductor*
%ADD28C,0.200000*%
G04 #@! TD*
G04 #@! TA.AperFunction,Conductor*
%ADD29C,0.180000*%
G04 #@! TD*
G04 #@! TA.AperFunction,Conductor*
%ADD30C,0.400000*%
G04 #@! TD*
G04 APERTURE END LIST*
D10*
X137325000Y-54840000D03*
D11*
X138470000Y-52300000D03*
X139365000Y-54840000D03*
X140510000Y-52300000D03*
X141405000Y-54840000D03*
X142550000Y-52300000D03*
D12*
X143700000Y-67775000D03*
X145000000Y-67775000D03*
X146300000Y-67775000D03*
D13*
X145000000Y-67125000D03*
D12*
X143700000Y-66475000D03*
X145000000Y-66475000D03*
X146300000Y-66475000D03*
X163700000Y-67775000D03*
X165000000Y-67775000D03*
X166300000Y-67775000D03*
D13*
X165000000Y-67125000D03*
D12*
X163700000Y-66475000D03*
X165000000Y-66475000D03*
X166300000Y-66475000D03*
D14*
X190055000Y-125500000D03*
D15*
X192595000Y-125500000D03*
X195135000Y-125500000D03*
D16*
X149130000Y-130000000D03*
D17*
X149130000Y-127460000D03*
X151670000Y-130000000D03*
X151670000Y-127460000D03*
X154210000Y-130000000D03*
X154210000Y-127460000D03*
X156750000Y-130000000D03*
X156750000Y-127460000D03*
X159290000Y-130000000D03*
X159290000Y-127460000D03*
D12*
X133700000Y-67775000D03*
X135000000Y-67775000D03*
X136300000Y-67775000D03*
D13*
X135000000Y-67125000D03*
D12*
X133700000Y-66475000D03*
X135000000Y-66475000D03*
X136300000Y-66475000D03*
D18*
X206000000Y-50000000D03*
X120000000Y-50000000D03*
D19*
X207500000Y-117500000D03*
D20*
X207500000Y-112420000D03*
D14*
X175500000Y-125500000D03*
D15*
X178040000Y-125500000D03*
X180580000Y-125500000D03*
X183120000Y-125500000D03*
D18*
X120000000Y-135000000D03*
D10*
X157325000Y-54840000D03*
D11*
X158470000Y-52300000D03*
X159365000Y-54840000D03*
X160510000Y-52300000D03*
X161405000Y-54840000D03*
X162550000Y-52300000D03*
D21*
X120925000Y-100680000D03*
D22*
X116745000Y-100680000D03*
D21*
X120925000Y-109320000D03*
D22*
X116745000Y-109320000D03*
D12*
X153700000Y-67775000D03*
X155000000Y-67775000D03*
X156300000Y-67775000D03*
D13*
X155000000Y-67125000D03*
D12*
X153700000Y-66475000D03*
X155000000Y-66475000D03*
X156300000Y-66475000D03*
D14*
X131880000Y-125500000D03*
D15*
X134420000Y-125500000D03*
X136960000Y-125500000D03*
X139500000Y-125500000D03*
D18*
X205000000Y-135000000D03*
D23*
X208750000Y-82000000D03*
D24*
X170000000Y-59000000D03*
D25*
X150500000Y-64800000D03*
D23*
X206750000Y-80500000D03*
D25*
X189250000Y-108750000D03*
D24*
X171500000Y-60000000D03*
D25*
X200750000Y-69000000D03*
X149700000Y-96800000D03*
X150500000Y-97400000D03*
X165250000Y-113000000D03*
X187500000Y-63000000D03*
X140000000Y-68500000D03*
X176936000Y-86500000D03*
D23*
X149580000Y-101000000D03*
D25*
X127686000Y-101500000D03*
X184250000Y-88000000D03*
D24*
X141000000Y-60000000D03*
D25*
X207250000Y-98000000D03*
D23*
X118000000Y-93500000D03*
D25*
X197600000Y-92800000D03*
D23*
X156500000Y-119500000D03*
D25*
X196975502Y-88175502D03*
X149800000Y-94600000D03*
X189000000Y-107250000D03*
X132000000Y-70500000D03*
X205250000Y-68500000D03*
D24*
X197000000Y-101900000D03*
X151000000Y-60000000D03*
D25*
X152000000Y-67750000D03*
D23*
X157500000Y-101700000D03*
D25*
X181500000Y-63000000D03*
D24*
X171500000Y-64000000D03*
D25*
X162100000Y-68300000D03*
D23*
X208000000Y-82000000D03*
D24*
X188600000Y-50750000D03*
D25*
X149000000Y-111500000D03*
X150400000Y-62900000D03*
D23*
X157250000Y-119500000D03*
D24*
X161500000Y-60000000D03*
X141000000Y-61000000D03*
D25*
X206500000Y-100000000D03*
X142250000Y-70750000D03*
D24*
X189400000Y-106000000D03*
D25*
X155750000Y-106000000D03*
X142500000Y-87000000D03*
X205250000Y-67500000D03*
D24*
X190600000Y-106600000D03*
D25*
X184250000Y-86500000D03*
D24*
X187100000Y-48250000D03*
D25*
X203750000Y-55250000D03*
D23*
X164500000Y-104500000D03*
D25*
X198500000Y-89400000D03*
X133500000Y-71500000D03*
X170000000Y-69000000D03*
X182500000Y-74000000D03*
X200750000Y-57500000D03*
X150000000Y-92500000D03*
X182500000Y-63000000D03*
X181500000Y-74000000D03*
X165250000Y-111500000D03*
X149000000Y-110500000D03*
X204500000Y-55750000D03*
D23*
X156250000Y-112000000D03*
D25*
X140500000Y-64800000D03*
D23*
X117750000Y-74750000D03*
X206750000Y-81250000D03*
X206750000Y-79750000D03*
D25*
X183500000Y-63000000D03*
D23*
X164750000Y-103250000D03*
D25*
X198925000Y-69175000D03*
D23*
X153750000Y-119500000D03*
D25*
X190000000Y-108000000D03*
D24*
X171000000Y-59000000D03*
X171500000Y-61000000D03*
X161000000Y-59000000D03*
D25*
X156250000Y-96564000D03*
X186500000Y-88000000D03*
X150000000Y-67500000D03*
D23*
X163750000Y-104500000D03*
D25*
X207250000Y-95000000D03*
D24*
X197000000Y-104000000D03*
D23*
X118000000Y-82750000D03*
D25*
X199652283Y-57351137D03*
X180500000Y-74000000D03*
X141300000Y-63800000D03*
X153250000Y-80000000D03*
X151564000Y-68500000D03*
X140000000Y-67500000D03*
X180500000Y-63000000D03*
D23*
X164750000Y-102500000D03*
D25*
X186500000Y-63000000D03*
D24*
X150500000Y-59000000D03*
D25*
X139000000Y-87000000D03*
X185500000Y-88000000D03*
X128814000Y-101500000D03*
X132000000Y-69500000D03*
X142250000Y-69750000D03*
X207700000Y-62300000D03*
X207250000Y-97000000D03*
X128814000Y-102500000D03*
X140500000Y-112750000D03*
D23*
X163500000Y-109250000D03*
X150500000Y-101000000D03*
D24*
X191800000Y-106500000D03*
D25*
X188000000Y-74000000D03*
X199750000Y-69000000D03*
D24*
X197000000Y-103000000D03*
D23*
X164750000Y-86750000D03*
D25*
X169250000Y-101750000D03*
X150000000Y-68500000D03*
X127686000Y-108750000D03*
X150000000Y-93300000D03*
X161200000Y-63400000D03*
X180750000Y-86250000D03*
X165750000Y-103750000D03*
D24*
X140500000Y-59000000D03*
D25*
X166250000Y-111500000D03*
X160000000Y-68500000D03*
D24*
X188600000Y-49500000D03*
D23*
X157000000Y-112000000D03*
D25*
X180750000Y-85250000D03*
X187500000Y-88000000D03*
D24*
X149500000Y-59000000D03*
D25*
X142750000Y-71750000D03*
D24*
X151000000Y-61000000D03*
D23*
X159500000Y-80250000D03*
X164000000Y-102500000D03*
D25*
X188500000Y-88000000D03*
X169250000Y-106750000D03*
D24*
X189400000Y-105100000D03*
D25*
X207250000Y-93000000D03*
X184500000Y-74000000D03*
X197100000Y-90500000D03*
X204250000Y-67000000D03*
X207250000Y-96000000D03*
X208500000Y-71300000D03*
D24*
X197000000Y-100900000D03*
D25*
X170000000Y-68000000D03*
D24*
X139500000Y-59000000D03*
D25*
X160000000Y-67500000D03*
D24*
X197006050Y-100048400D03*
D25*
X163250000Y-86750000D03*
X123000000Y-109000000D03*
D23*
X164250000Y-109250000D03*
D25*
X198648621Y-57475000D03*
X189500000Y-88000000D03*
X176936000Y-85500000D03*
D23*
X118000000Y-90500000D03*
D25*
X159750000Y-86750000D03*
D24*
X161500000Y-61000000D03*
D25*
X196564000Y-92800000D03*
X208500000Y-73500000D03*
X126750000Y-108750000D03*
D23*
X160750000Y-80250000D03*
D25*
X126750000Y-101500000D03*
D23*
X118000000Y-86500000D03*
X154500000Y-119500000D03*
D25*
X123000000Y-101000000D03*
X207800000Y-60100000D03*
X183500000Y-74000000D03*
X157000000Y-97000000D03*
D23*
X153750000Y-118750000D03*
D25*
X198400000Y-92800000D03*
X165250000Y-114000000D03*
D24*
X196998073Y-99193435D03*
D25*
X133000000Y-80000000D03*
X128814000Y-108750000D03*
D23*
X207250000Y-82000000D03*
X135500000Y-87000000D03*
D25*
X140500000Y-110750000D03*
X184500000Y-63000000D03*
X207250000Y-99500000D03*
D23*
X140500000Y-80250000D03*
D25*
X184250000Y-85500000D03*
D23*
X118000000Y-96500000D03*
D25*
X152750000Y-73000000D03*
D24*
X188350000Y-48250000D03*
D23*
X157600000Y-101000000D03*
D25*
X204500000Y-56750000D03*
D23*
X158000000Y-119500000D03*
X139500000Y-80250000D03*
D25*
X140500000Y-111750000D03*
X185500000Y-74000000D03*
X162100000Y-67400000D03*
X132500000Y-71500000D03*
D23*
X144250000Y-87000000D03*
D25*
X143750000Y-71750000D03*
X187000000Y-74000000D03*
X134250000Y-81250000D03*
X207250000Y-94000000D03*
D24*
X160000000Y-59000000D03*
D25*
X128814000Y-107750000D03*
X185500000Y-63000000D03*
D23*
X156000000Y-86750000D03*
X155500000Y-112000000D03*
D25*
X150000000Y-98200000D03*
X158750000Y-69500000D03*
D23*
X162250000Y-114500000D03*
D25*
X168750000Y-69500000D03*
X167750000Y-69500000D03*
D23*
X163000000Y-114500000D03*
D25*
X138750000Y-73500000D03*
X148750000Y-73500000D03*
D23*
X158250000Y-118000000D03*
D24*
X199000000Y-105500000D03*
D25*
X138750000Y-69500000D03*
X134900000Y-111900000D03*
D23*
X117750000Y-78750000D03*
D25*
X148750000Y-72186000D03*
X147750000Y-73500000D03*
X154500000Y-77500000D03*
D24*
X183100000Y-102800000D03*
D23*
X162250000Y-102500000D03*
X161500000Y-105750000D03*
X158250000Y-116500000D03*
X158750000Y-112250000D03*
D25*
X156500000Y-98000000D03*
X188600000Y-117800000D03*
X157750000Y-69500000D03*
X187000000Y-117900000D03*
X156500000Y-99000000D03*
X153500000Y-77500000D03*
X157750000Y-73500000D03*
D23*
X161500000Y-102500000D03*
D24*
X183100000Y-101944997D03*
D25*
X167750000Y-73500000D03*
D23*
X157250000Y-113000000D03*
D25*
X133250000Y-77500000D03*
X140250000Y-74500000D03*
D23*
X147750000Y-112250000D03*
D25*
X141250000Y-74500000D03*
X134250000Y-77500000D03*
X137750000Y-69500000D03*
X133800000Y-110900000D03*
D23*
X142250000Y-110500000D03*
X147000000Y-112250000D03*
D25*
X135900000Y-111000000D03*
D23*
X161500000Y-105000000D03*
X157250000Y-113750000D03*
D25*
X150000000Y-100250000D03*
D23*
X161500000Y-110250000D03*
D25*
X161500000Y-74500000D03*
D23*
X142250000Y-112750000D03*
D25*
X158750000Y-73500000D03*
D24*
X183100000Y-101089994D03*
D23*
X201250000Y-92000000D03*
X143000000Y-110500000D03*
D25*
X147000000Y-71750000D03*
D23*
X146250000Y-112250000D03*
D24*
X183100000Y-104510006D03*
D25*
X150000000Y-99250000D03*
D23*
X159500000Y-112250000D03*
X204500000Y-82250000D03*
D25*
X160500000Y-74500000D03*
D24*
X183100000Y-103655003D03*
D23*
X159750000Y-105750000D03*
X163000000Y-102500000D03*
X158250000Y-117250000D03*
X157250000Y-114500000D03*
X162250000Y-110250000D03*
X143000000Y-112750000D03*
D25*
X168750000Y-73500000D03*
D23*
X161500000Y-114500000D03*
D25*
X137750000Y-73500000D03*
D23*
X198000000Y-87250000D03*
D25*
X198400000Y-91700000D03*
D23*
X199250000Y-87500000D03*
D25*
X197100000Y-95400000D03*
X191700000Y-84900000D03*
X199500000Y-72500000D03*
X197100000Y-96200000D03*
X200300000Y-72500000D03*
X202000000Y-79000000D03*
X191100000Y-81800000D03*
X197600000Y-91700000D03*
X199750000Y-60950000D03*
D23*
X197750000Y-85250000D03*
D25*
X200000000Y-79000000D03*
D23*
X199750000Y-94250000D03*
D25*
X198800000Y-60900000D03*
D23*
X137250000Y-83750000D03*
X139000000Y-83750000D03*
X140750000Y-83750000D03*
X142500000Y-83750000D03*
X160250000Y-109181000D03*
X166750000Y-104000000D03*
X164500000Y-106250000D03*
X160500000Y-106750000D03*
X161250000Y-106750000D03*
X161000000Y-109500000D03*
D25*
X163800000Y-131800000D03*
X162200000Y-109200000D03*
D23*
X130250000Y-75000000D03*
X132250000Y-91250000D03*
X162250000Y-107250000D03*
D25*
X162900000Y-89400000D03*
X153500000Y-52500000D03*
X153000000Y-62500000D03*
X165500000Y-62500000D03*
X165000000Y-55500000D03*
X162500000Y-57000000D03*
X163000000Y-62500000D03*
X155500000Y-62500000D03*
X169500000Y-51000000D03*
X122750000Y-105340000D03*
X124792194Y-104707806D03*
D24*
X191100000Y-91700000D03*
X191100000Y-89600000D03*
X191100000Y-99000000D03*
D23*
X158500000Y-65500000D03*
X154500000Y-65000000D03*
X160500000Y-71750000D03*
X158250000Y-67000000D03*
X162500000Y-71750000D03*
X162500000Y-74750000D03*
X159250000Y-75000000D03*
X170750000Y-72500000D03*
X164500000Y-65000000D03*
X170750000Y-67250000D03*
X168500000Y-65500000D03*
X160000000Y-73000000D03*
X138500000Y-65500000D03*
X139000000Y-67000000D03*
X134500000Y-65000000D03*
X139250000Y-75000000D03*
X144250000Y-83750000D03*
X146000000Y-83750000D03*
X144500000Y-65000000D03*
X150250000Y-66500000D03*
X150000000Y-65500000D03*
X141500000Y-75250000D03*
X150000000Y-72750000D03*
X142000000Y-74000000D03*
D25*
X143500000Y-50500000D03*
X143000000Y-62500000D03*
X134000000Y-57500000D03*
X131500000Y-50000000D03*
X145500000Y-62500000D03*
X143834620Y-55584620D03*
X135500000Y-62500000D03*
X134500000Y-53000000D03*
X133000000Y-57500000D03*
X133000000Y-62500000D03*
D23*
X151750000Y-103500000D03*
X152000000Y-94000000D03*
X152000000Y-95750000D03*
X153099311Y-122650689D03*
X152500000Y-115000000D03*
X138000000Y-95750000D03*
X140000000Y-104750000D03*
X153750000Y-122250000D03*
X152750000Y-115750000D03*
X138000000Y-96500000D03*
X139500000Y-105250000D03*
X148750000Y-115000000D03*
X138750000Y-105750000D03*
X138000000Y-97250000D03*
X147750000Y-125250000D03*
X145750000Y-111000000D03*
X151500000Y-125750000D03*
X153250000Y-123500000D03*
X151500000Y-115000000D03*
X153500000Y-121000000D03*
X150000000Y-103500000D03*
X150500000Y-121500000D03*
X150750000Y-115250000D03*
D25*
X189400000Y-120400000D03*
X188400000Y-122500000D03*
D23*
X155000000Y-122000000D03*
X150876804Y-103506923D03*
D25*
X180250000Y-72250000D03*
X181000000Y-70000000D03*
X179250000Y-72250000D03*
X183000000Y-70000000D03*
X190500000Y-67000000D03*
X187500000Y-70000000D03*
D23*
X172750000Y-97500000D03*
X172500000Y-83250000D03*
D25*
X185000000Y-70000000D03*
D23*
X177000000Y-71250000D03*
X174250000Y-81000000D03*
D25*
X191500000Y-67000000D03*
X189500000Y-67000000D03*
X184000000Y-70000000D03*
X188500000Y-67000000D03*
X186000000Y-70000000D03*
X182000000Y-70000000D03*
D24*
X157500000Y-59000000D03*
X167500000Y-59000000D03*
D25*
X177000000Y-58000000D03*
D24*
X166500000Y-59000000D03*
X156500000Y-59000000D03*
X166000000Y-61000000D03*
X156000000Y-61000000D03*
X168500000Y-59000000D03*
X156000000Y-60000000D03*
D25*
X177000000Y-57000000D03*
D24*
X166000000Y-60000000D03*
D25*
X177000000Y-59000000D03*
D24*
X158500000Y-59000000D03*
X146000000Y-59000000D03*
X135500000Y-60000000D03*
X148000000Y-59000000D03*
X138000000Y-59000000D03*
X136000000Y-59000000D03*
X137000000Y-59000000D03*
D25*
X176000000Y-69000000D03*
D24*
X147000000Y-59000000D03*
X145500000Y-61000000D03*
D25*
X176000000Y-70000000D03*
X177000000Y-68000000D03*
D24*
X135500000Y-61000000D03*
X145500000Y-60000000D03*
D25*
X202750000Y-57750000D03*
X200750000Y-61500000D03*
X142200000Y-77686000D03*
X137500000Y-87000000D03*
X202000000Y-66750000D03*
X204000000Y-71400000D03*
X203500000Y-60500000D03*
X201000000Y-55500000D03*
X204300000Y-75800000D03*
D23*
X191750000Y-115000000D03*
X195200000Y-64500000D03*
D25*
X204700000Y-62200000D03*
D23*
X189750000Y-115750000D03*
X204750000Y-64250000D03*
X133000000Y-82000000D03*
X138300000Y-91250000D03*
X149750000Y-108000000D03*
X132750000Y-86000000D03*
X147000000Y-86000000D03*
X147000000Y-81500000D03*
X150000000Y-107250000D03*
X146000000Y-87000000D03*
X156500000Y-106750000D03*
X156750000Y-87500000D03*
X153250000Y-85750000D03*
X153000000Y-82250000D03*
X157000000Y-106250000D03*
D25*
X167500000Y-86000000D03*
X168000000Y-81500000D03*
D23*
X163750000Y-87500000D03*
X152250000Y-100250000D03*
D25*
X155200000Y-94900000D03*
X153700000Y-95100000D03*
D23*
X151750000Y-100750000D03*
D25*
X144600000Y-96400000D03*
D23*
X150500000Y-105750000D03*
X151250000Y-106250000D03*
D25*
X143200000Y-96600000D03*
X147700000Y-96300000D03*
D23*
X149903170Y-104351592D03*
X150250000Y-105000000D03*
D25*
X146300000Y-96300000D03*
X158200000Y-95000000D03*
D23*
X154250000Y-99250000D03*
D25*
X156600000Y-94900000D03*
D23*
X153625000Y-98875000D03*
D24*
X179000000Y-56000000D03*
X175000000Y-50500000D03*
X179000000Y-65250000D03*
X174500000Y-64250000D03*
X179000000Y-50250000D03*
X178250000Y-67000000D03*
D23*
X192750000Y-62250000D03*
D25*
X178750000Y-60750000D03*
X187250000Y-58750000D03*
X181750000Y-58750000D03*
X186000000Y-58750000D03*
X178000000Y-80000000D03*
D23*
X177000000Y-84500000D03*
D25*
X180750000Y-58750000D03*
X190250000Y-55250000D03*
X177000000Y-73000000D03*
X189250000Y-55250000D03*
D23*
X178250000Y-85500000D03*
X193750000Y-79250000D03*
D25*
X179750000Y-60750000D03*
X184000000Y-58750000D03*
X183000000Y-58750000D03*
D23*
X178000000Y-98250000D03*
D25*
X174250000Y-72500000D03*
X188250000Y-55250000D03*
D23*
X177250000Y-82250000D03*
D25*
X185000000Y-58750000D03*
X191250000Y-55250000D03*
D23*
X178500000Y-84000000D03*
X153000000Y-97750000D03*
X177500000Y-95000000D03*
X153006000Y-101000000D03*
X156750000Y-100000000D03*
X173500000Y-96500000D03*
X154750000Y-100000000D03*
X174750000Y-83750000D03*
X156250000Y-100500000D03*
X154995000Y-100750000D03*
X179000000Y-96500000D03*
X182000000Y-84000000D03*
X150000000Y-121000000D03*
X150000000Y-115000000D03*
X126750000Y-87500000D03*
X126775000Y-93775000D03*
X138000000Y-95000000D03*
X140500000Y-103500000D03*
X138000000Y-94250000D03*
X127750000Y-83250000D03*
X127750000Y-93750000D03*
X140750000Y-104500000D03*
X128250000Y-80250000D03*
X129000000Y-115250000D03*
X154255505Y-114793907D03*
X155500000Y-117250000D03*
D25*
X140800000Y-87100000D03*
X137600000Y-77600000D03*
X162500000Y-78100000D03*
D23*
X157750000Y-86750000D03*
D25*
X157900000Y-77800000D03*
D23*
X161250000Y-86750000D03*
D25*
X143000000Y-92900000D03*
X145000000Y-77000000D03*
X146000000Y-75750000D03*
X145750000Y-71750000D03*
X144750000Y-71750000D03*
X144600000Y-92900000D03*
X136500000Y-78186000D03*
X135750000Y-72250000D03*
D23*
X147750000Y-78000000D03*
D25*
X146200000Y-92800000D03*
D23*
X147750000Y-77250000D03*
D25*
X135500000Y-78500000D03*
X134500000Y-72000000D03*
X147800000Y-92800000D03*
D23*
X166000000Y-89500000D03*
X165750000Y-72000000D03*
X164250000Y-72442000D03*
X165250000Y-89500000D03*
X150750000Y-75250000D03*
X155500000Y-74000000D03*
D25*
X155200000Y-91200000D03*
D23*
X155500000Y-72500000D03*
X154500000Y-72500000D03*
X150250000Y-74750000D03*
X154500000Y-73750000D03*
D25*
X153500000Y-91200000D03*
X120000000Y-104000000D03*
X120000000Y-106000000D03*
D26*
X148750000Y-72186000D02*
X148750000Y-73500000D01*
X157750000Y-69500000D02*
X157750000Y-73500000D01*
D27*
X201250000Y-87000000D02*
X204500000Y-83750000D01*
X200244000Y-95256000D02*
X201200000Y-94300000D01*
D26*
X147000000Y-71750000D02*
X147750000Y-72500000D01*
D27*
X201250000Y-92000000D02*
X201250000Y-91500000D01*
D26*
X167750000Y-69500000D02*
X167750000Y-73500000D01*
X137750000Y-69500000D02*
X137750000Y-73500000D01*
D27*
X204500000Y-83750000D02*
X204500000Y-82250000D01*
X201200000Y-92050000D02*
X201250000Y-92000000D01*
D26*
X138750000Y-69750000D02*
X138750000Y-69500000D01*
D27*
X200244000Y-104256000D02*
X200244000Y-95256000D01*
D26*
X138750000Y-73500000D02*
X138750000Y-69750000D01*
X158750000Y-69500000D02*
X158750000Y-73500000D01*
X147750000Y-72500000D02*
X147750000Y-73500000D01*
X168750000Y-69500000D02*
X168750000Y-73500000D01*
D27*
X201200000Y-94300000D02*
X201200000Y-92050000D01*
X199000000Y-105500000D02*
X200244000Y-104256000D01*
X201250000Y-91500000D02*
X201250000Y-87000000D01*
X197750000Y-85250000D02*
X197750000Y-87000000D01*
X197750000Y-87000000D02*
X198000000Y-87250000D01*
X199750000Y-94250000D02*
X199250000Y-93750000D01*
X191100000Y-84300000D02*
X191700000Y-84900000D01*
X199250000Y-93750000D02*
X199250000Y-87500000D01*
X191100000Y-81800000D02*
X191100000Y-84300000D01*
X137250000Y-83750000D02*
X139000000Y-83750000D01*
X140750000Y-83750000D02*
X142500000Y-83750000D01*
X166250000Y-104500000D02*
X164500000Y-106250000D01*
X166750000Y-104000000D02*
X166250000Y-104500000D01*
X160500000Y-106750000D02*
X160500000Y-108931000D01*
X160500000Y-108931000D02*
X160250000Y-109181000D01*
X161250000Y-106750000D02*
X161000000Y-107000000D01*
X161000000Y-107000000D02*
X161000000Y-109500000D01*
X130250000Y-89250000D02*
X130250000Y-75000000D01*
D28*
X164650000Y-130950000D02*
X164650000Y-111650000D01*
X164650000Y-111650000D02*
X162200000Y-109200000D01*
X163800000Y-131800000D02*
X164650000Y-130950000D01*
D27*
X163500000Y-103801378D02*
X162250000Y-105051378D01*
X163500000Y-90000000D02*
X163500000Y-103801378D01*
X162900000Y-89400000D02*
X163500000Y-90000000D01*
X162250000Y-105051378D02*
X162250000Y-107250000D01*
X132250000Y-91250000D02*
X130250000Y-89250000D01*
D26*
X153000000Y-62500000D02*
X153000000Y-53000000D01*
X153000000Y-53000000D02*
X153500000Y-52500000D01*
X165000000Y-62000000D02*
X165000000Y-55500000D01*
X165500000Y-62500000D02*
X165000000Y-62000000D01*
X163000000Y-57500000D02*
X162500000Y-57000000D01*
X163000000Y-62500000D02*
X163000000Y-57500000D01*
X161250000Y-56500000D02*
X161405000Y-56345000D01*
X155500000Y-62500000D02*
X154500000Y-61500000D01*
D28*
X162245000Y-54000000D02*
X161405000Y-54840000D01*
X167000000Y-54000000D02*
X162245000Y-54000000D01*
D26*
X161405000Y-56345000D02*
X161405000Y-54840000D01*
X154500000Y-61500000D02*
X154500000Y-58500000D01*
X154500000Y-58500000D02*
X156500000Y-56500000D01*
D28*
X169500000Y-51500000D02*
X169500000Y-51000000D01*
X167000000Y-54000000D02*
X169500000Y-51500000D01*
D26*
X156500000Y-56500000D02*
X161250000Y-56500000D01*
D29*
X122750000Y-105340000D02*
X124160000Y-105340000D01*
X124160000Y-105340000D02*
X124792194Y-104707806D01*
D30*
X191100000Y-98500000D02*
X191100000Y-91700000D01*
X191100000Y-99000000D02*
X191100000Y-98500000D01*
X191100000Y-91700000D02*
X191100000Y-89600000D01*
D27*
X158250000Y-68000000D02*
X158250000Y-67000000D01*
X154500000Y-65000000D02*
X158000000Y-65000000D01*
X160500000Y-70250000D02*
X159500000Y-69250000D01*
X162500000Y-74750000D02*
X162500000Y-71750000D01*
X158000000Y-65000000D02*
X158500000Y-65500000D01*
X159500000Y-69250000D02*
X158250000Y-68000000D01*
X160500000Y-71750000D02*
X160500000Y-70250000D01*
X170750000Y-72500000D02*
X170750000Y-72000000D01*
X170750000Y-72000000D02*
X170750000Y-67250000D01*
X168000000Y-65000000D02*
X168500000Y-65500000D01*
X159750000Y-73250000D02*
X160000000Y-73000000D01*
X159250000Y-74952383D02*
X159750000Y-74452383D01*
X159750000Y-74452383D02*
X159750000Y-73250000D01*
X159250000Y-75000000D02*
X159250000Y-74952383D01*
X164500000Y-65000000D02*
X168000000Y-65000000D01*
X138000000Y-65000000D02*
X138500000Y-65500000D01*
X139250000Y-74122000D02*
X139436000Y-73936000D01*
X139436000Y-73936000D02*
X139436000Y-67436000D01*
X139250000Y-75000000D02*
X139250000Y-74122000D01*
X134500000Y-65000000D02*
X138000000Y-65000000D01*
X139436000Y-67436000D02*
X139000000Y-67000000D01*
X144500000Y-83750000D02*
X146000000Y-83750000D01*
X144250000Y-83750000D02*
X144500000Y-83750000D01*
X142000000Y-74750000D02*
X142000000Y-74000000D01*
X150564000Y-72186000D02*
X150564000Y-68936000D01*
X150000000Y-65500000D02*
X149500000Y-65000000D01*
X150000000Y-72750000D02*
X150500000Y-72250000D01*
X150500000Y-72250000D02*
X150564000Y-72186000D01*
X150564000Y-68936000D02*
X151000000Y-68500000D01*
X149500000Y-65000000D02*
X144500000Y-65000000D01*
X141500000Y-75250000D02*
X142000000Y-74750000D01*
X151000000Y-67250000D02*
X150250000Y-66500000D01*
X151000000Y-68500000D02*
X151000000Y-67250000D01*
D26*
X143000000Y-62500000D02*
X143000000Y-55500000D01*
X143000000Y-55500000D02*
X144000000Y-54500000D01*
X144000000Y-51000000D02*
X143500000Y-50500000D01*
X144000000Y-54500000D02*
X144000000Y-51000000D01*
X144000000Y-61000000D02*
X144000000Y-58000000D01*
X144000000Y-58000000D02*
X144000000Y-55750000D01*
X144000000Y-55750000D02*
X143834620Y-55584620D01*
D28*
X133600000Y-57100000D02*
X134000000Y-57500000D01*
X133600000Y-52100000D02*
X133600000Y-57100000D01*
X131500000Y-50000000D02*
X133600000Y-52100000D01*
D26*
X145500000Y-62500000D02*
X144000000Y-61000000D01*
X140510000Y-51010000D02*
X140510000Y-52300000D01*
X135500000Y-53000000D02*
X135500000Y-51750000D01*
X135500000Y-57000000D02*
X135500000Y-53000000D01*
X140010000Y-50760000D02*
X140260000Y-50760000D01*
X140000000Y-50750000D02*
X140010000Y-50760000D01*
X135500000Y-51750000D02*
X136500000Y-50750000D01*
X135500000Y-62500000D02*
X134800000Y-61800000D01*
X134800000Y-57700000D02*
X135500000Y-57000000D01*
X136500000Y-50750000D02*
X140000000Y-50750000D01*
X140260000Y-50760000D02*
X140510000Y-51010000D01*
X134800000Y-61800000D02*
X134800000Y-57700000D01*
D28*
X134500000Y-53000000D02*
X135500000Y-53000000D01*
D26*
X133000000Y-62500000D02*
X133000000Y-57500000D01*
D27*
X151250000Y-96500000D02*
X152000000Y-95750000D01*
X152000000Y-95750000D02*
X152000000Y-94000000D01*
X151250000Y-103000000D02*
X151250000Y-96500000D01*
X151750000Y-103500000D02*
X151250000Y-103000000D01*
X152000000Y-121551378D02*
X152000000Y-115500000D01*
X152000000Y-115500000D02*
X152500000Y-115000000D01*
X153099311Y-122650689D02*
X152000000Y-121551378D01*
X138000000Y-95750000D02*
X140000000Y-97750000D01*
X140000000Y-97750000D02*
X140000000Y-104750000D01*
X152750000Y-115750000D02*
X152328000Y-116172000D01*
X152328000Y-121000000D02*
X153578000Y-122250000D01*
X152328000Y-116172000D02*
X152328000Y-121000000D01*
X153578000Y-122250000D02*
X153750000Y-122250000D01*
X139500000Y-98000000D02*
X139500000Y-105250000D01*
X138000000Y-96500000D02*
X139500000Y-98000000D01*
X149130000Y-127460000D02*
X149130000Y-115380000D01*
X149130000Y-115380000D02*
X148750000Y-115000000D01*
X138000000Y-97250000D02*
X138750000Y-98000000D01*
X138750000Y-98000000D02*
X138750000Y-105750000D01*
X147000000Y-125250000D02*
X146250000Y-124500000D01*
X146250000Y-124000000D02*
X145750000Y-123500000D01*
X151670000Y-125920000D02*
X151500000Y-125750000D01*
X145750000Y-123500000D02*
X145750000Y-111000000D01*
X151670000Y-127460000D02*
X151670000Y-125920000D01*
X146250000Y-124500000D02*
X146250000Y-124000000D01*
X147750000Y-125250000D02*
X147000000Y-125250000D01*
X153250000Y-123500000D02*
X151500000Y-121750000D01*
X151500000Y-121750000D02*
X151500000Y-115000000D01*
X150000000Y-103750000D02*
X150000000Y-103500000D01*
X153000000Y-116500000D02*
X153250000Y-116250000D01*
X153000000Y-120500000D02*
X153000000Y-116500000D01*
X150244000Y-103994000D02*
X150000000Y-103750000D01*
X153250000Y-115114551D02*
X153000000Y-114864551D01*
X153500000Y-121000000D02*
X153000000Y-120500000D01*
X153000000Y-106551378D02*
X150442622Y-103994000D01*
X150442622Y-103994000D02*
X150244000Y-103994000D01*
X153000000Y-114864551D02*
X153000000Y-106551378D01*
X153250000Y-116250000D02*
X153250000Y-115114551D01*
X150500000Y-115500000D02*
X150750000Y-115250000D01*
X150500000Y-121500000D02*
X150500000Y-115500000D01*
X150876804Y-103506923D02*
X150876804Y-103825426D01*
X153500000Y-106448622D02*
X153500000Y-114900689D01*
X188400000Y-122500000D02*
X188400000Y-121400000D01*
X153500000Y-114900689D02*
X155000000Y-116400689D01*
X188400000Y-121400000D02*
X189400000Y-120400000D01*
X150876804Y-103825426D02*
X153500000Y-106448622D01*
X155000000Y-116400689D02*
X155000000Y-122000000D01*
X172250000Y-97000000D02*
X172250000Y-83500000D01*
X177000000Y-71250000D02*
X174250000Y-74000000D01*
X174250000Y-74000000D02*
X174250000Y-81000000D01*
X172250000Y-83500000D02*
X172500000Y-83250000D01*
X172750000Y-97500000D02*
X172250000Y-97000000D01*
D26*
X200750000Y-59750000D02*
X202750000Y-57750000D01*
X200750000Y-61500000D02*
X200750000Y-59750000D01*
D28*
X142200000Y-81299534D02*
X142200000Y-77686000D01*
X137500000Y-85999534D02*
X142200000Y-81299534D01*
X137500000Y-87000000D02*
X137500000Y-85999534D01*
D26*
X202500000Y-66750000D02*
X202000000Y-66750000D01*
X204200000Y-71200000D02*
X204200000Y-68450000D01*
X204200000Y-68450000D02*
X202500000Y-66750000D01*
X204000000Y-71400000D02*
X204200000Y-71200000D01*
X201419239Y-55500000D02*
X201000000Y-55500000D01*
X203500000Y-60500000D02*
X203500000Y-57580761D01*
X203500000Y-57580761D02*
X201419239Y-55500000D01*
D27*
X204100000Y-81500000D02*
X204100000Y-76000000D01*
X198494000Y-87306000D02*
X204100000Y-81700000D01*
X196000000Y-89800000D02*
X196148622Y-89800000D01*
X198494000Y-87454622D02*
X198494000Y-87306000D01*
X196148622Y-89800000D02*
X198494000Y-87454622D01*
X204100000Y-81700000D02*
X204100000Y-81500000D01*
X191750000Y-115000000D02*
X196000000Y-110750000D01*
X204100000Y-76000000D02*
X204300000Y-75800000D01*
X196000000Y-110750000D02*
X196000000Y-89800000D01*
X195250000Y-64550000D02*
X195250000Y-110250000D01*
X195200000Y-64500000D02*
X195250000Y-64550000D01*
X195250000Y-110250000D02*
X189750000Y-115750000D01*
D28*
X204700000Y-64200000D02*
X204750000Y-64250000D01*
X204700000Y-62200000D02*
X204700000Y-64200000D01*
D27*
X141400000Y-101900000D02*
X142875000Y-103375000D01*
X132750000Y-82250000D02*
X133000000Y-82000000D01*
X141400000Y-94400000D02*
X141400000Y-101900000D01*
X138300000Y-91250000D02*
X138300000Y-91300000D01*
X138300000Y-91300000D02*
X141400000Y-94400000D01*
X147500000Y-108000000D02*
X149750000Y-108000000D01*
X142875000Y-103375000D02*
X147500000Y-108000000D01*
X132750000Y-86000000D02*
X132750000Y-82250000D01*
X146000000Y-87000000D02*
X144800000Y-87000000D01*
X141728000Y-101478000D02*
X147500000Y-107250000D01*
X144800000Y-87000000D02*
X144744000Y-87056000D01*
X144744000Y-87204622D02*
X144454622Y-87494000D01*
X141728000Y-94264138D02*
X141728000Y-100250000D01*
X147000000Y-81500000D02*
X147000000Y-86000000D01*
X144744000Y-87056000D02*
X144744000Y-87204622D01*
X147500000Y-107250000D02*
X150000000Y-107250000D01*
X140500000Y-91300000D02*
X140500000Y-93036138D01*
X144306000Y-87494000D02*
X140500000Y-91300000D01*
X141728000Y-100250000D02*
X141728000Y-101478000D01*
X140500000Y-93036138D02*
X141728000Y-94264138D01*
X144454622Y-87494000D02*
X144306000Y-87494000D01*
X160250000Y-91000000D02*
X156750000Y-87500000D01*
X156500000Y-106750000D02*
X156500000Y-103500000D01*
X160250000Y-99750000D02*
X160250000Y-91000000D01*
X153000000Y-85500000D02*
X153000000Y-82250000D01*
X156500000Y-103500000D02*
X160250000Y-99750000D01*
X153250000Y-85750000D02*
X153000000Y-85500000D01*
X163750000Y-87500000D02*
X160750000Y-90500000D01*
X160750000Y-100250000D02*
X157000000Y-104000000D01*
X160750000Y-91250000D02*
X160750000Y-100250000D01*
X157000000Y-104000000D02*
X157000000Y-106250000D01*
X168000000Y-85500000D02*
X167500000Y-86000000D01*
X160750000Y-90500000D02*
X160750000Y-91250000D01*
X168000000Y-81500000D02*
X168000000Y-85500000D01*
X152822000Y-97178000D02*
X155100000Y-94900000D01*
X152250000Y-100250000D02*
X152250000Y-97750000D01*
X152250000Y-97750000D02*
X152822000Y-97178000D01*
X155100000Y-94900000D02*
X155200000Y-94900000D01*
X153700000Y-95550000D02*
X153700000Y-95100000D01*
X151750000Y-100750000D02*
X151750000Y-97500000D01*
X151750000Y-97500000D02*
X152494000Y-96756000D01*
X152494000Y-96756000D02*
X153700000Y-95550000D01*
X150087516Y-105750000D02*
X148250000Y-103912484D01*
X150500000Y-105750000D02*
X150087516Y-105750000D01*
X148250000Y-103912484D02*
X144600000Y-100262484D01*
X144600000Y-100262484D02*
X144600000Y-96400000D01*
X151250000Y-106250000D02*
X150123654Y-106250000D01*
X147986827Y-104113173D02*
X143200000Y-99326346D01*
X150123654Y-106250000D02*
X147986827Y-104113173D01*
X143200000Y-99326346D02*
X143200000Y-96600000D01*
X147700000Y-102148422D02*
X147700000Y-96300000D01*
X148975789Y-103424211D02*
X147700000Y-102148422D01*
X149903170Y-104351592D02*
X148975789Y-103424211D01*
X149801378Y-105000000D02*
X148594000Y-103792622D01*
X150250000Y-105000000D02*
X149801378Y-105000000D01*
X148594000Y-103792622D02*
X146300000Y-101498622D01*
X146300000Y-101498622D02*
X146300000Y-96300000D01*
X158200000Y-95000000D02*
X158200000Y-95100000D01*
X156316383Y-95700000D02*
X154250000Y-97766383D01*
X154250000Y-97766383D02*
X154250000Y-99250000D01*
X157600000Y-95700000D02*
X156316383Y-95700000D01*
X158200000Y-95100000D02*
X157600000Y-95700000D01*
X153625000Y-97823622D02*
X153625000Y-98875000D01*
X156600000Y-94900000D02*
X156548622Y-94900000D01*
X153625000Y-98875000D02*
X153750000Y-98750000D01*
X153600000Y-98850000D02*
X153625000Y-98875000D01*
X156548622Y-94900000D02*
X153625000Y-97823622D01*
D30*
X179000000Y-50250000D02*
X179000000Y-51000000D01*
X175000000Y-50500000D02*
X174500000Y-51000000D01*
X179000000Y-65250000D02*
X179000000Y-66250000D01*
X179000000Y-66250000D02*
X178250000Y-67000000D01*
X174500000Y-51000000D02*
X174500000Y-64250000D01*
X179000000Y-51000000D02*
X179000000Y-56000000D01*
D27*
X193750000Y-79250000D02*
X193750000Y-63250000D01*
X178750000Y-61250000D02*
X178750000Y-60750000D01*
X173500000Y-66500000D02*
X178750000Y-61250000D01*
X178000000Y-80000000D02*
X178000000Y-74000000D01*
X193750000Y-63250000D02*
X192750000Y-62250000D01*
X174250000Y-72500000D02*
X173500000Y-71750000D01*
X173500000Y-71750000D02*
X173500000Y-66500000D01*
X177250000Y-84250000D02*
X177250000Y-82250000D01*
X178000000Y-74000000D02*
X177000000Y-73000000D01*
X178000000Y-98250000D02*
X178000000Y-85750000D01*
X178000000Y-85750000D02*
X178250000Y-85500000D01*
X177000000Y-84500000D02*
X177250000Y-84250000D01*
X177500000Y-85000000D02*
X178500000Y-84000000D01*
X153006000Y-97756000D02*
X153000000Y-97750000D01*
X177500000Y-95000000D02*
X177500000Y-85000000D01*
X153006000Y-101000000D02*
X153006000Y-97756000D01*
X154750000Y-100000000D02*
X156750000Y-100000000D01*
X174250000Y-95750000D02*
X174250000Y-84250000D01*
X174250000Y-84250000D02*
X174750000Y-83750000D01*
X173500000Y-96500000D02*
X174250000Y-95750000D01*
X179000000Y-96500000D02*
X182000000Y-93500000D01*
X154995000Y-100750000D02*
X155245000Y-100500000D01*
X182000000Y-93500000D02*
X182000000Y-84000000D01*
X155245000Y-100500000D02*
X156250000Y-100500000D01*
X150000000Y-120250000D02*
X150000000Y-115000000D01*
X150000000Y-121000000D02*
X150000000Y-120250000D01*
X126750000Y-87500000D02*
X126750000Y-93750000D01*
X140500000Y-97500000D02*
X138000000Y-95000000D01*
X140500000Y-103500000D02*
X140500000Y-97500000D01*
X126750000Y-93750000D02*
X126775000Y-93775000D01*
X138000000Y-94250000D02*
X140994000Y-97244000D01*
X140994000Y-104256000D02*
X140750000Y-104500000D01*
X127750000Y-93750000D02*
X127750000Y-83250000D01*
X140994000Y-97244000D02*
X140994000Y-104256000D01*
X128250000Y-80250000D02*
X128250000Y-114500000D01*
X128250000Y-114500000D02*
X129000000Y-115250000D01*
X155500000Y-117250000D02*
X155500000Y-116038402D01*
X155500000Y-116038402D02*
X154255505Y-114793907D01*
D28*
X136500000Y-87900000D02*
X136900000Y-88300000D01*
X139600000Y-88300000D02*
X140800000Y-87100000D01*
X136500000Y-79034529D02*
X136500000Y-87900000D01*
X137600000Y-77600000D02*
X137600000Y-77934529D01*
X137600000Y-77934529D02*
X136500000Y-79034529D01*
X136900000Y-88300000D02*
X139600000Y-88300000D01*
X162500000Y-78100000D02*
X162500000Y-86249534D01*
X157750000Y-87650000D02*
X157750000Y-86750000D01*
X162500000Y-86249534D02*
X160649534Y-88100000D01*
X158200000Y-88100000D02*
X157750000Y-87650000D01*
X160649534Y-88100000D02*
X158200000Y-88100000D01*
X160400000Y-87600000D02*
X161250000Y-86750000D01*
X159350233Y-87600000D02*
X160400000Y-87600000D01*
X157900000Y-77800000D02*
X157900000Y-86149767D01*
X157900000Y-86149767D02*
X159350233Y-87600000D01*
D27*
X143000000Y-92900000D02*
X143700000Y-92200000D01*
X143700000Y-92200000D02*
X144700000Y-92200000D01*
X144700000Y-92200000D02*
X145900000Y-91000000D01*
X145900000Y-91000000D02*
X147400000Y-91000000D01*
X147400000Y-91000000D02*
X147900000Y-90500000D01*
X146000000Y-72000000D02*
X145750000Y-71750000D01*
X146000000Y-75750000D02*
X146000000Y-72000000D01*
X147900000Y-90500000D02*
X147900000Y-79900000D01*
X147900000Y-79900000D02*
X145000000Y-77000000D01*
X144750000Y-75750000D02*
X144750000Y-71750000D01*
X144600000Y-92900000D02*
X145800000Y-91700000D01*
X145800000Y-91700000D02*
X147900000Y-91700000D01*
X147900000Y-91700000D02*
X148250000Y-91350000D01*
X148250000Y-79250000D02*
X144750000Y-75750000D01*
X148250000Y-91350000D02*
X148250000Y-79250000D01*
X146200000Y-92800000D02*
X146900000Y-92100000D01*
X135328000Y-72672000D02*
X135750000Y-72250000D01*
X148000000Y-92100000D02*
X148594000Y-91506000D01*
X136500000Y-78186000D02*
X135328000Y-77014000D01*
X148594000Y-78844000D02*
X147750000Y-78000000D01*
X135328000Y-77014000D02*
X135328000Y-72672000D01*
X148594000Y-91506000D02*
X148594000Y-78844000D01*
X146900000Y-92100000D02*
X148000000Y-92100000D01*
X148922000Y-91678000D02*
X147800000Y-92800000D01*
X135000000Y-78000000D02*
X135000000Y-72500000D01*
X148922000Y-78422000D02*
X148922000Y-91678000D01*
X148922000Y-78422000D02*
X147750000Y-77250000D01*
X135500000Y-78500000D02*
X135000000Y-78000000D01*
X135000000Y-72500000D02*
X134500000Y-72000000D01*
X166000000Y-72250000D02*
X165750000Y-72000000D01*
X166000000Y-89500000D02*
X166000000Y-72250000D01*
X165250000Y-89500000D02*
X165500000Y-89250000D01*
X165500000Y-73692000D02*
X164250000Y-72442000D01*
X165500000Y-88750000D02*
X165500000Y-73692000D01*
X165500000Y-89250000D02*
X165500000Y-88750000D01*
X155200000Y-89950000D02*
X149578000Y-84328000D01*
X155200000Y-91200000D02*
X155200000Y-89950000D01*
X150578000Y-75422000D02*
X150750000Y-75250000D01*
X149578000Y-84328000D02*
X149578000Y-83135862D01*
X149578000Y-83135862D02*
X150578000Y-82135862D01*
X155500000Y-74000000D02*
X155500000Y-72500000D01*
X150578000Y-82135862D02*
X150578000Y-75422000D01*
X149250000Y-75750000D02*
X150250000Y-74750000D01*
X149250000Y-84750000D02*
X149250000Y-75750000D01*
X154500000Y-73750000D02*
X154500000Y-72500000D01*
X153500000Y-89000000D02*
X149250000Y-84750000D01*
X153500000Y-91200000D02*
X153500000Y-89000000D01*
X120000000Y-104000000D02*
X120000000Y-106000000D01*
M02*
